{"glyphs":{"0":{"ha":879,"x_min":36,"x_max":844,"o":"m 439 -17 q 233 37 324 -17 q 89 197 142 90 q 36 454 36 303 q 89 710 36 606 q 233 865 142 814 q 439 917 324 917 q 646 865 554 917 q 791 710 738 814 q 844 454 844 606 q 791 197 844 303 q 645 37 738 90 q 439 -17 553 -17 m 439 168 q 564 248 531 168 q 597 453 597 328 q 564 655 597 578 q 439 732 531 732 q 315 655 349 732 q 282 453 282 578 q 315 248 282 328 q 439 168 349 168 z "},"1":{"ha":557,"x_min":13,"x_max":465,"o":"m 13 549 l 13 708 l 29 708 q 126 720 79 708 q 203 754 174 732 q 274 900 274 806 l 274 903 l 465 903 l 465 0 l 226 0 l 226 549 l 13 549 z "},"2":{"ha":821,"x_min":36,"x_max":764,"o":"m 747 0 l 53 0 q 94 233 53 143 q 208 376 135 324 q 399 474 282 429 q 507 542 476 504 q 538 628 538 579 q 502 707 538 676 q 410 738 467 738 q 300 689 338 738 q 260 561 263 640 l 36 561 q 85 753 36 674 q 219 875 133 833 q 414 917 304 917 q 593 883 514 917 q 718 787 672 850 q 764 638 764 724 q 692 448 764 522 q 490 322 619 374 q 369 258 415 290 q 306 190 322 226 l 318 174 q 508 190 368 190 l 747 190 l 747 0 z "},"3":{"ha":868,"x_min":39,"x_max":813,"o":"m 813 261 q 760 110 813 174 q 619 15 707 47 q 431 -18 532 -18 q 231 20 319 -18 q 90 136 142 58 q 40 325 39 214 l 279 325 q 318 213 279 257 q 436 168 357 168 q 534 200 496 168 q 572 286 572 232 q 531 366 572 336 q 419 396 490 396 l 346 396 l 346 550 l 429 550 q 513 574 478 550 q 547 646 547 597 q 515 717 547 692 q 432 743 482 743 q 338 706 374 743 q 299 613 301 668 l 65 613 q 117 777 65 708 q 256 881 169 846 q 446 917 343 917 q 689 856 592 917 q 786 689 786 796 q 758 588 786 629 q 690 523 729 546 q 619 494 651 500 l 619 471 q 700 445 656 467 q 778 378 744 424 q 813 261 813 332 z "},"4":{"ha":847,"x_min":40,"x_max":813,"o":"m 40 210 l 40 403 l 446 903 l 689 903 l 689 383 l 813 383 l 813 210 l 689 210 l 689 0 l 472 0 l 469 210 l 40 210 m 469 528 q 488 697 469 631 l 464 704 q 386 582 438 642 l 225 383 l 469 383 l 469 528 z "},"5":{"ha":858,"x_min":38,"x_max":819,"o":"m 819 313 q 774 146 819 221 q 639 27 728 71 q 428 -17 550 -17 q 202 35 289 -17 q 77 158 115 86 q 38 297 39 231 l 283 297 q 327 202 290 240 q 428 164 364 164 q 540 208 499 164 q 581 318 581 251 q 539 426 581 388 q 432 464 497 464 q 300 390 343 464 l 75 390 l 167 903 l 764 903 l 764 715 l 343 715 l 326 633 q 288 539 313 576 l 311 529 q 389 595 336 571 q 506 619 442 619 q 665 582 593 619 q 778 474 736 544 q 819 313 819 404 z "},"6":{"ha":839,"x_min":51,"x_max":799,"o":"m 799 311 q 755 142 799 217 q 630 25 711 67 q 440 -17 549 -17 q 226 43 314 -17 q 94 203 138 103 q 51 426 51 303 q 150 783 51 649 q 442 917 249 917 q 680 845 586 917 q 793 647 774 774 l 558 647 q 517 715 547 688 q 436 742 488 742 q 313 665 351 742 q 278 482 274 588 l 300 479 q 378 563 322 533 q 501 593 435 593 q 660 555 593 593 q 763 453 728 517 q 799 311 799 389 m 293 303 q 333 199 293 240 q 436 157 374 157 q 538 199 499 157 q 578 303 578 240 q 538 402 578 365 q 436 439 499 439 q 333 401 374 439 q 293 303 293 363 z "},"7":{"ha":739,"x_min":26,"x_max":710,"o":"m 143 54 q 185 322 143 188 q 302 560 228 457 q 468 707 376 664 l 460 731 q 328 719 406 719 l 26 719 l 26 903 l 710 903 l 710 726 q 471 427 546 610 q 396 36 396 244 l 396 0 l 143 0 l 143 54 z "},"8":{"ha":838,"x_min":33,"x_max":803,"o":"m 803 258 q 747 107 803 169 q 604 14 692 44 q 419 -17 517 -17 q 228 14 317 -17 q 87 106 140 44 q 33 258 33 168 q 96 405 33 349 q 240 472 158 461 l 240 494 q 120 556 167 513 q 74 678 74 600 q 117 804 74 750 q 240 888 161 858 q 419 917 318 917 q 599 888 519 917 q 722 804 678 858 q 767 678 767 750 q 718 556 767 601 q 600 494 669 510 l 600 472 q 742 407 682 463 q 803 258 803 351 m 304 653 q 334 576 304 603 q 419 550 364 550 q 506 576 475 550 q 536 653 536 603 q 505 731 536 703 q 419 758 474 758 q 335 731 365 758 q 304 653 304 703 m 553 279 q 517 376 553 343 q 419 410 482 410 q 319 376 356 410 q 283 279 283 343 q 320 184 283 217 q 419 151 357 151 q 517 184 482 151 q 553 279 553 217 z "},"9":{"ha":839,"x_min":53,"x_max":800,"o":"m 53 589 q 97 758 53 683 q 222 875 140 833 q 411 917 303 917 q 626 858 539 917 q 757 698 714 799 q 800 474 800 597 q 701 117 800 251 q 410 -17 603 -17 q 172 55 265 -17 q 58 253 78 126 l 293 253 q 334 185 304 213 q 415 158 364 158 q 539 235 500 158 q 574 418 578 313 l 551 421 q 473 337 529 367 q 350 307 417 307 q 191 345 258 307 q 88 447 124 383 q 53 589 53 511 m 558 599 q 518 702 558 661 q 415 743 478 743 q 313 702 353 743 q 274 599 274 661 q 313 498 274 535 q 415 461 353 461 q 518 499 478 461 q 558 599 558 538 z "}," ":{"ha":379,"x_min":0,"x_max":0,"o":""},"A":{"ha":974,"x_min":11,"x_max":963,"o":"m 640 200 l 329 200 l 264 0 l 11 0 l 328 924 l 635 924 l 963 0 l 707 0 l 640 200 m 597 364 l 524 588 q 506 649 513 621 q 494 711 499 678 l 469 711 q 460 653 465 676 q 442 588 454 629 l 374 364 l 597 364 z "},"B":{"ha":960,"x_min":90,"x_max":921,"o":"m 603 924 q 749 896 686 924 q 846 818 813 868 q 879 706 879 768 q 827 561 879 615 q 694 497 775 507 l 694 474 q 855 412 789 469 q 921 253 921 354 q 845 69 921 138 q 617 0 769 0 l 90 0 l 90 924 l 603 924 m 521 549 q 599 574 571 549 q 628 644 628 600 q 599 714 628 689 q 521 739 571 739 l 336 739 l 336 549 l 521 549 m 544 185 q 631 212 600 185 q 663 289 663 239 q 631 365 663 338 q 544 393 600 393 l 336 393 l 336 185 l 544 185 z "},"C":{"ha":992,"x_min":50,"x_max":951,"o":"m 951 340 q 813 79 931 175 q 510 -17 696 -17 q 171 108 292 -17 q 50 458 50 233 q 106 713 50 604 q 267 881 163 822 q 511 940 371 940 q 808 847 694 940 q 946 586 922 753 l 700 586 q 636 708 686 664 q 514 753 586 753 l 503 753 q 353 676 407 753 q 300 460 300 600 q 354 247 300 322 q 503 171 408 171 l 511 171 q 639 219 589 171 q 703 340 689 268 l 951 340 z "},"D":{"ha":1026,"x_min":90,"x_max":976,"o":"m 493 924 q 747 867 638 924 q 917 708 857 811 q 976 467 976 604 q 917 220 976 326 q 747 57 857 114 q 490 0 636 0 l 90 0 l 90 924 l 493 924 m 472 192 q 660 263 597 192 q 722 467 722 333 q 662 666 722 600 q 475 732 601 732 l 336 732 l 336 192 l 472 192 z "},"E":{"ha":867,"x_min":90,"x_max":811,"o":"m 811 192 l 811 0 l 90 0 l 90 924 l 801 924 l 801 732 l 336 732 l 336 558 l 754 558 l 754 378 l 336 378 l 336 192 l 811 192 z "},"F":{"ha":804,"x_min":90,"x_max":782,"o":"m 336 732 l 336 558 l 725 558 l 725 374 l 336 374 l 336 0 l 90 0 l 90 924 l 782 924 l 782 732 l 336 732 z "},"G":{"ha":999,"x_min":50,"x_max":947,"o":"m 942 0 l 721 0 q 749 143 721 83 l 725 153 q 626 37 696 90 q 443 -17 556 -17 q 235 42 324 -17 q 98 208 146 100 q 50 460 50 315 q 108 714 50 606 q 271 881 165 822 q 519 940 376 940 q 731 898 638 940 q 879 780 824 856 q 947 606 935 704 l 704 606 q 638 713 689 672 q 522 753 588 753 l 513 753 q 353 676 413 753 q 294 461 294 599 q 355 244 294 318 q 515 171 415 171 l 522 171 q 615 194 571 171 q 688 257 660 217 q 715 346 715 297 l 715 357 l 475 357 l 475 522 l 942 522 l 942 0 z "},"H":{"ha":1021,"x_min":90,"x_max":931,"o":"m 931 924 l 931 0 l 685 0 l 685 363 l 336 363 l 336 0 l 90 0 l 90 924 l 336 924 l 336 556 l 685 556 l 685 924 l 931 924 z "},"I":{"ha":426,"x_min":90,"x_max":336,"o":"m 336 924 l 336 0 l 90 0 l 90 924 l 336 924 z "},"J":{"ha":768,"x_min":25,"x_max":678,"o":"m 678 924 l 678 292 q 583 58 678 135 q 342 -18 489 -18 q 111 58 197 -18 q 25 292 25 133 l 25 385 l 251 383 l 251 267 q 276 196 251 219 q 342 172 300 172 l 343 172 q 409 196 385 172 q 433 267 433 219 l 433 924 l 678 924 z "},"K":{"ha":1010,"x_min":90,"x_max":983,"o":"m 435 385 l 336 274 l 336 0 l 90 0 l 90 924 l 336 924 l 336 554 l 676 924 l 964 924 l 603 543 l 983 0 l 697 0 l 435 385 z "},"L":{"ha":828,"x_min":90,"x_max":794,"o":"m 794 192 l 794 0 l 90 0 l 90 924 l 336 924 l 336 192 l 794 192 z "},"M":{"ha":1283,"x_min":90,"x_max":1193,"o":"m 451 924 l 588 468 q 631 275 618 367 l 651 275 q 696 468 665 367 l 832 924 l 1193 924 l 1193 0 l 956 0 l 956 486 q 968 706 956 600 l 943 710 q 904 535 929 628 l 750 0 l 533 0 l 381 535 q 340 710 360 606 l 314 706 q 328 496 328 603 l 328 0 l 90 0 l 90 924 l 451 924 z "},"N":{"ha":1029,"x_min":90,"x_max":939,"o":"m 342 924 l 601 503 q 656 409 635 449 q 696 321 676 369 l 721 326 q 706 488 706 410 l 704 924 l 939 924 l 939 0 l 689 0 l 419 436 q 335 606 365 522 l 311 600 q 325 432 325 500 l 325 0 l 90 0 l 90 924 l 342 924 z "},"O":{"ha":1043,"x_min":50,"x_max":993,"o":"m 521 940 q 777 876 671 940 q 938 704 883 813 q 993 464 993 596 q 939 223 993 332 q 778 49 885 114 q 521 -17 671 -17 q 264 48 371 -17 q 103 222 157 113 q 50 463 50 331 q 105 702 50 593 q 266 876 160 811 q 521 940 372 940 m 525 171 q 685 249 629 171 q 740 461 740 326 q 685 674 740 596 q 526 753 629 753 l 521 753 q 360 674 417 753 q 303 461 303 594 q 359 249 303 328 q 518 171 415 171 l 525 171 z "},"P":{"ha":914,"x_min":90,"x_max":883,"o":"m 532 924 q 788 844 693 924 q 883 628 883 765 q 787 401 883 483 q 528 319 690 319 l 336 319 l 336 0 l 90 0 l 90 924 l 532 924 m 508 499 q 600 531 568 499 q 632 619 632 563 q 600 706 632 675 q 508 738 568 738 l 336 738 l 336 499 l 508 499 z "},"Q":{"ha":1044,"x_min":50,"x_max":993,"o":"m 993 464 q 964 283 993 368 q 878 132 935 197 l 974 31 l 861 -79 l 754 35 q 521 -17 651 -17 q 264 48 371 -17 q 103 222 157 113 q 50 463 50 331 q 105 702 50 593 q 266 876 160 811 q 521 940 372 940 q 777 876 671 940 q 938 704 883 813 q 993 464 993 596 m 525 171 q 611 189 575 171 l 444 368 l 558 471 l 714 306 q 740 461 740 368 q 685 674 740 596 q 526 753 629 753 l 521 753 q 360 674 417 753 q 303 461 303 594 q 359 249 303 328 q 518 171 415 171 l 525 171 z "},"R":{"ha":986,"x_min":90,"x_max":942,"o":"m 576 924 q 812 860 722 924 q 901 671 901 797 q 874 558 901 607 q 803 481 847 508 q 708 450 758 454 l 708 425 q 840 376 794 424 q 886 235 886 329 q 902 107 886 165 q 942 8 918 49 l 942 0 l 692 0 q 656 200 656 79 q 619 306 656 272 q 496 340 583 340 l 331 340 l 331 0 l 90 0 l 90 924 l 576 924 m 528 511 q 619 541 588 511 q 650 625 650 571 q 619 709 650 679 q 529 739 589 739 l 331 739 l 331 511 l 528 511 z "},"S":{"ha":910,"x_min":40,"x_max":872,"o":"m 311 333 q 358 210 313 257 q 478 164 404 164 q 572 189 531 164 q 613 258 613 214 q 581 325 613 306 q 493 360 550 344 l 326 406 q 74 665 74 471 q 122 813 74 751 q 256 908 171 875 q 451 940 342 940 q 736 862 618 940 q 869 628 854 783 l 606 628 q 560 728 603 692 q 453 764 517 764 q 365 741 403 764 q 328 679 328 718 q 356 619 328 642 q 438 585 383 597 l 608 540 q 872 276 872 476 q 821 122 872 189 q 678 19 769 56 q 472 -17 588 -17 q 178 65 301 -17 q 40 333 54 147 l 311 333 z "},"ẞ":{"ha":958,"x_min":90,"x_max":921,"o":"m 644 538 q 784 513 721 543 q 884 424 847 482 q 921 289 921 365 q 876 124 921 193 q 753 19 832 56 q 571 -17 674 -17 q 476 -10 529 -17 q 397 4 424 -4 l 397 207 q 536 183 468 183 q 644 211 601 183 q 686 296 686 239 q 653 385 686 354 q 564 417 619 417 q 494 403 531 417 l 413 556 l 553 683 q 625 736 592 717 l 618 754 q 469 742 551 742 l 331 742 l 331 0 l 90 0 l 90 924 l 871 924 l 871 740 l 744 639 l 710 611 q 638 554 667 572 l 644 538 z "},"T":{"ha":822,"x_min":7,"x_max":815,"o":"m 815 732 l 535 732 l 535 0 l 289 0 l 289 732 l 7 732 l 7 924 l 815 924 l 815 732 z "},"U":{"ha":1007,"x_min":90,"x_max":917,"o":"m 504 -17 q 199 78 307 -17 q 90 353 90 174 l 90 924 l 336 924 l 336 361 q 380 222 336 274 q 501 171 424 171 l 508 171 q 628 222 586 171 q 671 361 671 274 l 671 924 l 917 924 l 917 353 q 809 78 917 174 q 504 -17 701 -17 z "},"V":{"ha":985,"x_min":18,"x_max":967,"o":"m 276 924 l 417 486 q 482 247 461 344 l 506 247 q 569 488 521 335 l 708 924 l 967 924 l 643 0 l 343 0 l 18 924 l 276 924 z "},"W":{"ha":1372,"x_min":18,"x_max":1354,"o":"m 276 924 l 379 467 q 404 275 396 386 l 429 275 q 457 464 438 381 l 567 924 l 807 924 l 917 469 q 947 275 935 394 l 972 275 q 996 464 978 381 l 1097 924 l 1354 924 l 1114 0 l 831 0 l 719 515 q 700 640 706 578 l 675 640 q 654 515 669 585 l 542 0 l 258 -1 l 18 922 l 276 924 z "},"X":{"ha":976,"x_min":10,"x_max":968,"o":"m 696 0 l 563 186 q 499 303 529 233 l 479 303 q 413 183 456 244 l 282 0 l 10 0 l 353 478 l 35 924 l 306 924 l 414 772 q 479 656 442 733 l 499 656 q 563 769 524 713 l 671 924 l 943 924 l 625 478 l 968 0 l 696 0 z "},"Y":{"ha":936,"x_min":15,"x_max":918,"o":"m 15 924 l 271 924 l 393 683 q 457 529 429 613 l 479 529 q 542 685 508 617 l 664 924 l 918 924 l 590 356 l 590 0 l 344 0 l 344 356 l 15 924 z "},"Z":{"ha":869,"x_min":29,"x_max":833,"o":"m 411 607 q 533 724 481 683 l 526 742 q 372 732 464 732 l 69 732 l 69 924 l 824 924 l 824 747 l 463 325 q 329 200 403 256 l 335 183 q 504 192 413 192 l 833 192 l 833 0 l 29 0 l 29 176 l 411 607 z "},"a":{"ha":824,"x_min":32,"x_max":801,"o":"m 401 711 q 649 653 568 711 q 729 457 731 596 l 728 214 q 735 185 728 193 q 763 178 742 178 q 801 182 783 178 l 801 1 q 664 -12 721 -12 q 568 15 599 -12 q 542 92 538 42 l 542 104 l 522 110 q 420 16 489 49 q 274 -17 351 -17 q 114 28 179 -17 q 32 188 32 85 q 113 349 32 290 q 283 406 175 390 l 336 413 q 455 441 415 424 q 494 496 494 458 q 468 546 494 529 q 399 563 442 563 q 322 538 351 563 q 289 465 292 513 l 51 465 q 148 648 53 585 q 401 711 243 711 m 503 353 q 410 300 478 318 l 358 286 q 298 255 318 275 q 278 201 278 235 q 301 153 278 171 q 360 135 325 135 q 461 175 419 135 q 503 285 503 215 l 503 353 z "},"b":{"ha":872,"x_min":82,"x_max":825,"o":"m 535 -17 q 403 20 457 -17 q 328 110 350 57 l 304 101 q 322 13 322 54 l 322 0 l 82 0 l 82 965 l 322 965 l 322 700 q 304 594 322 642 l 326 586 q 403 675 350 639 q 535 711 457 711 q 684 667 618 711 q 788 539 750 622 q 825 344 825 456 q 788 152 825 233 q 685 27 750 71 q 535 -17 619 -17 m 449 153 q 543 206 511 153 q 575 346 575 258 q 543 488 575 435 q 449 542 511 542 l 443 542 q 347 488 378 542 q 315 346 315 435 q 347 205 315 257 q 443 153 378 153 l 449 153 z "},"c":{"ha":822,"x_min":47,"x_max":782,"o":"m 782 281 q 664 62 763 140 q 415 -17 565 -17 q 222 26 306 -17 q 93 151 139 68 q 47 350 47 233 q 95 547 47 465 q 227 669 143 628 q 417 711 311 711 q 657 640 561 711 q 775 440 753 569 l 531 440 q 497 513 524 483 q 424 542 469 542 l 418 542 q 325 492 356 542 q 294 350 294 442 q 325 205 294 257 q 418 153 356 153 l 424 153 q 503 190 474 153 q 540 281 532 228 l 782 281 z "},"d":{"ha":872,"x_min":47,"x_max":790,"o":"m 335 -17 q 183 30 249 -17 q 83 159 118 76 q 47 344 47 242 q 82 532 47 449 q 182 663 117 615 q 335 711 247 711 q 471 674 418 711 q 546 586 524 636 l 568 594 q 549 700 549 640 l 549 965 l 790 965 l 790 0 l 549 0 l 549 6 q 568 101 549 50 l 544 110 q 468 21 524 58 q 335 -17 413 -17 m 429 153 q 526 205 494 153 q 557 346 557 257 q 526 488 557 435 q 429 542 494 542 l 424 542 q 328 488 361 542 q 296 346 296 435 q 328 206 296 258 q 424 153 360 153 l 429 153 z "},"e":{"ha":808,"x_min":47,"x_max":765,"o":"m 407 711 q 594 668 514 711 q 720 543 675 625 q 765 349 765 461 l 765 303 l 285 303 l 285 296 q 322 192 286 235 q 415 149 357 149 l 418 149 q 492 172 463 149 q 532 228 521 196 l 765 228 q 644 47 738 111 q 414 -17 551 -17 q 219 29 301 -17 q 92 157 136 75 q 47 344 47 239 q 92 541 47 458 q 219 667 138 624 q 407 711 300 711 m 531 431 q 495 524 526 488 q 410 561 464 561 l 404 561 q 319 524 350 561 q 285 431 289 488 l 531 431 z "},"f":{"ha":550,"x_min":26,"x_max":538,"o":"m 454 818 q 365 747 365 818 l 365 694 l 531 694 l 531 533 l 365 533 l 365 0 l 124 0 l 124 533 l 26 533 l 26 694 l 124 694 l 124 778 q 188 929 124 876 q 369 982 251 982 q 538 965 446 982 l 538 807 q 454 818 490 818 z "},"g":{"ha":856,"x_min":28,"x_max":782,"o":"m 286 -24 q 325 -94 294 -68 q 410 -121 356 -121 l 414 -121 q 546 -4 540 -121 q 567 147 553 108 l 542 154 q 456 63 517 97 q 325 29 396 29 q 183 69 246 29 q 83 186 119 110 q 47 367 47 263 q 121 618 47 525 q 324 711 194 711 q 461 674 407 711 q 536 581 515 636 l 561 588 q 544 636 550 617 q 539 676 539 656 l 539 694 l 782 694 l 782 21 q 685 -215 782 -142 q 404 -287 589 -287 q 142 -215 233 -287 q 28 -24 51 -143 l 286 -24 m 425 196 q 516 240 483 196 q 549 367 549 285 q 517 494 549 450 q 426 539 485 539 l 419 539 q 328 494 361 539 q 296 368 296 450 q 328 240 296 285 q 419 196 361 196 l 425 196 z "},"h":{"ha":860,"x_min":82,"x_max":788,"o":"m 322 965 l 322 683 q 317 636 322 657 q 301 586 313 615 l 326 578 q 415 674 351 638 q 564 711 478 711 q 726 651 665 711 q 788 472 788 590 l 788 0 l 547 0 l 547 426 q 517 503 547 476 q 440 529 488 529 l 436 529 q 356 499 389 529 q 322 419 322 469 l 322 0 l 82 0 l 82 965 l 322 965 z "},"i":{"ha":404,"x_min":75,"x_max":329,"o":"m 203 763 q 113 799 150 763 q 75 885 75 835 q 113 970 75 935 q 203 1006 150 1006 q 292 970 256 1006 q 329 885 329 935 q 292 799 329 835 q 203 763 254 763 m 322 694 l 322 0 l 82 0 l 82 694 l 322 694 z "},"j":{"ha":404,"x_min":-81,"x_max":326,"o":"m 200 763 q 110 799 147 763 q 72 885 72 835 q 110 970 72 935 q 200 1006 147 1006 q 290 970 253 1006 q 326 885 326 935 q 289 799 326 835 q 200 763 251 763 m -81 -97 q 14 -107 -31 -107 q 66 -90 49 -107 q 83 -28 83 -72 l 83 694 l 324 694 l 324 -26 q 256 -223 324 -161 q 33 -285 188 -285 q -28 -281 7 -285 q -81 -272 -62 -276 l -81 -97 z "},"k":{"ha":844,"x_min":82,"x_max":844,"o":"m 399 282 l 322 207 l 322 0 l 82 0 l 82 965 l 322 965 l 322 454 l 556 694 l 813 694 l 550 435 l 551 433 l 844 0 l 576 0 l 399 282 z "},"l":{"ha":406,"x_min":82,"x_max":322,"o":"m 322 965 l 322 0 l 82 0 l 82 965 l 322 965 z "},"m":{"ha":1268,"x_min":81,"x_max":1196,"o":"m 975 711 q 1135 654 1075 711 q 1196 471 1196 597 l 1196 0 l 956 0 l 956 426 q 928 503 956 478 q 863 529 901 529 l 857 529 q 786 501 814 529 q 758 418 758 472 l 758 0 l 518 0 l 518 424 q 491 503 518 478 q 422 529 464 529 l 418 529 q 349 501 376 529 q 321 415 321 472 l 321 0 l 81 0 l 81 694 l 315 694 l 315 678 q 312 634 315 651 q 297 588 308 617 l 324 581 q 408 680 350 649 q 542 711 467 711 q 667 676 617 711 q 731 576 717 642 l 750 576 q 834 674 776 638 q 975 711 892 711 z "},"n":{"ha":858,"x_min":81,"x_max":786,"o":"m 322 694 l 322 682 q 317 638 322 657 q 299 588 311 618 l 324 579 q 413 675 350 639 q 561 711 476 711 q 724 651 663 711 q 786 472 786 590 l 786 0 l 544 0 l 544 426 q 515 503 544 476 q 439 529 486 529 l 433 529 q 353 499 386 529 q 321 419 321 469 l 321 0 l 81 0 l 81 694 l 322 694 z "},"o":{"ha":842,"x_min":47,"x_max":794,"o":"m 421 711 q 611 669 526 711 q 745 547 696 628 q 794 350 794 465 q 745 152 794 235 q 611 26 696 69 q 421 -17 526 -17 q 231 26 315 -17 q 97 152 146 69 q 47 350 47 235 q 97 547 47 465 q 231 669 146 628 q 421 711 315 711 m 425 153 q 518 207 488 153 q 549 349 549 261 q 517 488 549 435 q 425 542 486 542 l 417 542 q 324 488 354 542 q 293 349 293 435 q 324 207 293 261 q 417 153 354 153 l 425 153 z "},"p":{"ha":869,"x_min":81,"x_max":822,"o":"m 535 711 q 686 665 621 711 q 787 535 751 618 q 822 350 822 453 q 788 163 822 246 q 688 31 753 79 q 535 -17 622 -17 q 399 21 451 -17 q 324 108 347 58 l 301 100 q 321 -6 321 54 l 321 -271 l 81 -271 l 81 694 l 321 694 l 321 689 q 301 593 321 644 l 325 585 q 402 674 347 636 q 535 711 457 711 m 440 542 q 344 490 375 542 q 313 349 313 438 q 344 206 313 260 q 440 153 375 153 l 446 153 q 541 207 508 153 q 574 349 574 261 q 542 490 574 438 q 446 542 510 542 l 440 542 z "},"q":{"ha":864,"x_min":47,"x_max":789,"o":"m 336 711 q 469 674 415 711 q 544 585 522 638 l 568 593 q 549 682 549 644 l 549 694 l 789 694 l 789 -271 l 549 -271 l 549 -6 q 568 100 549 50 l 546 108 q 468 19 521 54 q 336 -17 415 -17 q 187 28 253 -17 q 84 156 121 72 q 47 350 47 239 q 84 542 47 461 q 187 667 121 624 q 336 711 253 711 m 424 542 q 328 490 360 542 q 296 349 296 438 q 328 207 296 261 q 424 153 361 153 l 429 153 q 526 206 494 153 q 557 349 557 260 q 526 490 557 438 q 429 542 494 542 l 424 542 z "},"r":{"ha":590,"x_min":81,"x_max":574,"o":"m 574 456 q 494 465 525 465 q 369 426 418 465 q 321 311 321 388 l 321 0 l 81 0 l 81 694 l 313 694 l 313 672 q 308 619 313 643 q 290 557 303 596 l 315 551 q 394 669 343 636 q 531 701 444 701 l 574 700 l 574 456 z "},"s":{"ha":757,"x_min":36,"x_max":722,"o":"m 279 228 q 317 158 286 182 q 394 133 347 133 q 459 149 433 133 q 485 196 485 165 q 461 240 485 224 q 393 267 438 256 l 261 300 q 61 503 61 353 q 103 614 61 567 q 219 686 146 661 q 382 711 292 711 q 611 649 519 711 q 718 474 703 586 l 486 474 q 450 543 481 518 q 379 568 419 568 q 316 552 339 568 q 293 508 293 536 q 314 469 293 485 q 381 443 335 454 l 514 411 q 667 338 613 386 q 722 208 722 290 q 633 44 722 104 q 394 -17 544 -17 q 153 44 250 -17 q 36 228 56 106 l 279 228 z "},"ß":{"ha":893,"x_min":90,"x_max":856,"o":"m 856 251 q 817 117 856 178 q 702 19 778 56 q 521 -17 626 -17 q 441 -11 482 -17 q 392 -4 400 -6 l 392 196 q 424 188 399 194 q 478 182 449 182 q 567 211 533 182 q 600 292 600 240 q 549 381 600 351 q 415 411 497 411 l 415 568 q 515 599 478 569 q 551 674 551 628 q 523 740 551 714 q 446 765 494 765 l 444 765 q 364 732 393 765 q 335 635 335 699 l 335 -1 l 90 -1 l 90 601 q 182 856 92 771 q 449 940 272 940 q 631 910 554 940 q 747 828 707 879 q 786 717 786 776 q 733 587 786 642 q 589 518 679 532 l 589 497 q 785 415 715 483 q 856 251 856 347 z "},"t":{"ha":550,"x_min":18,"x_max":511,"o":"m 511 0 q 389 -14 442 -14 q 192 57 258 -14 q 125 265 125 128 l 125 533 l 18 533 l 18 694 l 125 694 l 125 900 l 367 900 l 367 694 l 506 694 l 506 533 l 367 533 l 367 283 q 386 208 367 231 q 449 186 406 186 q 485 190 465 186 q 511 194 506 193 l 511 0 z "},"u":{"ha":844,"x_min":72,"x_max":765,"o":"m 522 0 l 522 13 q 528 60 522 39 q 546 108 533 81 l 521 115 q 435 19 494 56 q 289 -17 375 -17 q 131 44 190 -17 q 72 224 72 106 l 72 694 l 313 694 l 313 268 q 340 192 313 219 q 413 165 367 165 l 418 165 q 493 195 463 165 q 524 275 524 225 l 524 694 l 765 694 l 765 0 l 522 0 z "},"v":{"ha":813,"x_min":10,"x_max":804,"o":"m 804 694 l 544 0 l 269 0 l 10 694 l 254 694 l 356 382 q 394 196 383 299 l 418 196 q 458 383 432 304 l 560 694 l 804 694 z "},"w":{"ha":1153,"x_min":10,"x_max":1143,"o":"m 1143 694 l 940 0 l 690 0 l 628 243 q 590 443 604 335 l 568 443 q 526 242 558 367 l 464 0 l 213 0 l 10 694 l 253 694 l 324 418 q 349 250 344 338 l 372 250 q 404 415 381 324 l 469 694 l 685 694 l 750 414 q 782 250 774 313 l 806 250 q 831 415 811 338 l 901 694 l 1143 694 z "},"x":{"ha":819,"x_min":15,"x_max":804,"o":"m 529 0 l 456 122 q 419 206 433 160 l 400 206 q 364 122 390 167 l 292 0 l 15 0 l 260 358 l 19 694 l 294 694 l 357 589 q 400 500 386 542 l 418 500 q 461 589 433 543 l 525 694 l 800 694 l 561 358 l 804 0 l 529 0 z "},"y":{"ha":858,"x_min":29,"x_max":779,"o":"m 779 694 l 779 24 q 683 -214 779 -140 q 401 -287 586 -287 q 144 -217 235 -287 q 29 -28 53 -147 l 288 -28 q 408 -121 308 -121 l 411 -121 q 511 -82 481 -121 q 542 40 542 -43 q 558 153 542 111 l 535 163 q 449 65 508 101 q 303 29 389 29 q 145 90 204 29 q 86 269 86 151 l 86 694 l 326 694 l 326 314 q 353 238 326 265 q 426 211 381 211 l 432 211 q 506 242 475 211 q 538 321 538 272 l 538 694 l 779 694 z "},"z":{"ha":699,"x_min":26,"x_max":671,"o":"m 281 426 q 367 506 321 471 l 361 522 l 54 521 l 54 694 l 656 694 l 656 538 l 414 283 q 314 192 361 229 l 321 172 l 671 174 l 671 0 l 26 0 l 26 156 l 281 426 z "},"ª":{"ha":518,"x_min":22,"x_max":500,"o":"m 253 922 q 406 887 356 922 q 456 765 457 851 l 456 614 q 460 596 456 600 q 476 592 464 592 q 500 593 493 592 l 500 481 q 415 472 451 472 q 339 538 335 472 q 340 544 339 542 l 326 549 q 264 491 307 511 q 174 471 221 471 q 74 499 111 471 q 22 597 22 533 q 72 697 22 660 q 179 732 113 724 l 211 738 q 285 754 261 743 q 310 789 310 765 q 293 820 310 810 q 250 831 276 831 q 202 815 221 831 q 182 769 183 799 l 35 769 q 95 883 36 844 q 253 922 154 922 m 315 700 q 257 667 301 679 l 226 658 q 175 606 175 644 q 190 575 175 586 q 226 564 204 564 q 290 589 264 564 q 315 657 315 614 l 315 700 z "},"º":{"ha":521,"x_min":32,"x_max":497,"o":"m 265 925 q 432 866 367 925 q 497 700 497 807 q 432 533 497 593 q 265 474 367 474 q 98 533 164 474 q 32 700 32 593 q 98 866 32 807 q 265 925 164 925 m 267 578 q 325 612 306 578 q 344 700 344 646 q 325 786 344 753 q 267 819 306 819 l 263 819 q 205 787 224 819 q 186 700 186 754 q 205 612 186 646 q 263 578 224 578 l 267 578 z "},"А":{"ha":974,"x_min":11,"x_max":963,"o":"m 640 200 l 329 200 l 264 0 l 11 0 l 328 924 l 635 924 l 963 0 l 707 0 l 640 200 m 597 364 l 524 588 q 506 649 513 621 q 494 711 499 678 l 469 711 q 460 653 465 676 q 442 588 454 629 l 374 364 l 597 364 z "},"Б":{"ha":942,"x_min":90,"x_max":904,"o":"m 581 565 q 744 533 671 565 q 861 437 818 500 q 904 283 904 374 q 817 73 904 146 q 581 0 731 0 l 90 0 l 90 924 l 772 924 l 772 732 l 336 732 l 336 565 l 581 565 m 535 182 q 624 210 593 182 q 654 288 654 238 q 624 366 654 339 q 535 393 593 393 l 336 393 l 336 182 l 535 182 z "},"В":{"ha":960,"x_min":90,"x_max":921,"o":"m 603 924 q 749 896 686 924 q 846 818 813 868 q 879 706 879 768 q 827 561 879 615 q 694 497 775 507 l 694 474 q 855 412 789 469 q 921 253 921 354 q 845 69 921 138 q 617 0 769 0 l 90 0 l 90 924 l 603 924 m 521 549 q 599 574 571 549 q 628 644 628 600 q 599 714 628 689 q 521 739 571 739 l 336 739 l 336 549 l 521 549 m 544 185 q 631 212 600 185 q 663 289 663 239 q 631 365 663 338 q 544 393 600 393 l 336 393 l 336 185 l 544 185 z "},"Г":{"ha":703,"x_min":90,"x_max":696,"o":"m 696 732 l 331 732 l 331 0 l 90 0 l 90 924 l 696 924 l 696 732 z "},"Д":{"ha":1038,"x_min":19,"x_max":1029,"o":"m 1029 182 l 1029 -175 l 829 -175 l 829 0 l 219 0 l 219 -175 l 19 -175 l 19 182 l 49 182 q 163 231 131 182 q 196 388 196 281 l 196 924 l 917 924 l 917 182 l 1029 182 m 683 742 l 415 742 l 415 385 q 397 274 415 321 q 322 194 378 226 l 329 174 q 428 182 361 182 l 683 182 l 683 742 z "},"Е":{"ha":867,"x_min":90,"x_max":811,"o":"m 811 192 l 811 0 l 90 0 l 90 924 l 801 924 l 801 732 l 336 732 l 336 558 l 754 558 l 754 378 l 336 378 l 336 192 l 811 192 z "},"Ж":{"ha":1572,"x_min":28,"x_max":1546,"o":"m 996 397 l 910 300 l 910 0 l 664 0 l 664 299 l 576 397 l 313 0 l 28 0 l 397 542 l 44 924 l 331 924 l 664 554 l 664 924 l 910 924 l 910 556 l 1243 924 l 1529 924 l 1176 542 l 1546 0 l 1261 0 l 996 397 z "},"З":{"ha":903,"x_min":32,"x_max":865,"o":"m 865 267 q 807 114 865 178 q 653 17 749 50 q 447 -17 557 -17 q 242 21 338 -17 q 90 135 147 58 q 36 326 32 213 l 276 326 q 328 212 278 249 q 449 175 378 175 q 560 205 513 175 q 607 286 607 235 q 565 367 607 339 q 453 396 524 396 l 358 396 l 358 553 l 463 553 q 553 577 515 553 q 592 651 592 601 q 553 728 592 700 q 457 757 515 757 q 344 719 385 757 q 296 624 303 682 l 58 624 q 117 795 64 724 q 260 903 171 867 q 461 940 349 940 q 667 906 582 940 q 795 816 753 872 q 838 693 838 760 q 781 558 838 604 q 663 499 724 511 l 663 476 q 799 418 732 467 q 865 267 865 369 z "},"И":{"ha":1029,"x_min":90,"x_max":939,"o":"m 939 0 l 704 0 l 704 432 q 718 600 704 517 l 694 606 q 608 436 664 521 l 339 0 l 90 0 l 90 924 l 325 924 l 324 488 q 308 326 324 410 l 332 321 q 428 503 368 406 l 688 924 l 939 924 l 939 0 z "},"К":{"ha":1010,"x_min":90,"x_max":983,"o":"m 435 385 l 336 274 l 336 0 l 90 0 l 90 924 l 336 924 l 336 554 l 676 924 l 964 924 l 603 543 l 983 0 l 697 0 l 435 385 z "},"Л":{"ha":1038,"x_min":18,"x_max":947,"o":"m 706 0 l 706 742 l 414 742 l 414 329 q 339 78 414 168 q 106 -12 264 -12 q 19 -1 47 -12 l 18 186 q 93 176 53 176 q 168 219 150 176 q 186 336 186 261 l 186 924 l 947 924 l 947 0 l 706 0 z "},"М":{"ha":1279,"x_min":92,"x_max":1194,"o":"m 453 924 l 589 468 q 632 275 619 367 l 653 275 q 697 468 667 367 l 833 924 l 1194 924 l 1194 0 l 957 0 l 957 486 q 969 706 957 600 l 944 710 q 906 535 931 628 l 751 0 l 535 0 l 382 535 q 342 710 361 606 l 315 706 q 329 496 329 603 l 329 0 l 92 0 l 92 924 l 453 924 z "},"Н":{"ha":1015,"x_min":92,"x_max":932,"o":"m 932 924 l 932 0 l 686 0 l 686 363 l 338 363 l 338 0 l 92 0 l 92 924 l 338 924 l 338 556 l 686 556 l 686 924 l 932 924 z "},"О":{"ha":1043,"x_min":50,"x_max":993,"o":"m 521 940 q 777 876 671 940 q 938 704 883 813 q 993 464 993 596 q 939 223 993 332 q 778 49 885 114 q 521 -17 671 -17 q 264 48 371 -17 q 103 222 157 113 q 50 463 50 331 q 105 702 50 593 q 266 876 160 811 q 521 940 372 940 m 525 171 q 685 249 629 171 q 740 461 740 326 q 685 674 740 596 q 526 753 629 753 l 521 753 q 360 674 417 753 q 303 461 303 594 q 359 249 303 328 q 518 171 415 171 l 525 171 z "},"П":{"ha":1018,"x_min":90,"x_max":926,"o":"m 926 -1 l 686 -1 l 686 732 l 331 732 l 331 0 l 90 0 l 90 924 l 926 924 l 926 -1 z "},"Р":{"ha":914,"x_min":90,"x_max":883,"o":"m 532 924 q 788 844 693 924 q 883 628 883 765 q 787 401 883 483 q 528 319 690 319 l 336 319 l 336 0 l 90 0 l 90 924 l 532 924 m 508 499 q 600 531 568 499 q 632 619 632 563 q 600 706 632 675 q 508 738 568 738 l 336 738 l 336 499 l 508 499 z "},"С":{"ha":992,"x_min":50,"x_max":951,"o":"m 951 340 q 813 79 931 175 q 510 -17 696 -17 q 171 108 292 -17 q 50 458 50 233 q 106 713 50 604 q 267 881 163 822 q 511 940 371 940 q 808 847 694 940 q 946 586 922 753 l 700 586 q 636 708 686 664 q 514 753 586 753 l 503 753 q 353 676 407 753 q 300 460 300 600 q 354 247 300 322 q 503 171 408 171 l 511 171 q 639 219 589 171 q 703 340 689 268 l 951 340 z "},"Т":{"ha":822,"x_min":7,"x_max":815,"o":"m 815 732 l 535 732 l 535 0 l 289 0 l 289 732 l 7 732 l 7 924 l 815 924 l 815 732 z "},"У":{"ha":926,"x_min":18,"x_max":908,"o":"m 136 190 q 238 172 190 172 q 297 187 272 172 q 343 239 321 201 l 353 257 l 18 924 l 271 924 l 404 617 q 435 535 424 571 q 456 453 446 500 l 479 453 q 533 618 500 544 l 664 924 l 908 924 l 554 175 q 438 33 508 79 q 258 -12 368 -12 q 189 -6 224 -12 q 136 8 154 0 l 136 190 z "},"Ф":{"ha":1193,"x_min":47,"x_max":1146,"o":"m 1146 463 q 1024 190 1146 286 q 701 88 903 94 l 701 0 l 492 0 l 492 88 q 169 191 290 94 q 47 463 47 288 q 169 734 47 639 q 492 836 290 829 l 492 924 l 701 924 l 701 836 q 1024 733 901 829 q 1146 463 1146 638 m 285 463 q 341 319 285 371 q 492 267 397 268 l 492 657 q 340 605 396 656 q 285 463 285 554 m 910 463 q 853 605 910 554 q 701 657 796 656 l 701 267 q 853 320 796 268 q 910 463 910 372 z "},"Х":{"ha":976,"x_min":10,"x_max":968,"o":"m 696 0 l 563 186 q 499 303 529 233 l 479 303 q 413 183 456 244 l 282 0 l 10 0 l 353 478 l 35 924 l 306 924 l 414 772 q 479 656 442 733 l 499 656 q 563 769 524 713 l 671 924 l 943 924 l 625 478 l 968 0 l 696 0 z "},"Ч":{"ha":940,"x_min":35,"x_max":850,"o":"m 850 924 l 850 0 l 604 0 l 604 321 l 389 321 q 35 647 35 321 l 35 924 l 281 924 l 281 653 q 310 543 281 574 q 419 513 340 513 l 604 513 l 604 924 l 850 924 z "},"Ц":{"ha":1047,"x_min":90,"x_max":1039,"o":"m 1039 -175 l 839 -175 l 839 0 l 90 0 l 90 925 l 332 925 l 332 192 l 686 192 l 686 924 l 926 924 l 926 182 l 1039 182 l 1039 -175 z "},"Ш":{"ha":1456,"x_min":90,"x_max":1365,"o":"m 1365 925 l 1365 0 l 90 0 l 90 924 l 336 924 l 336 192 l 607 192 l 607 925 l 847 925 l 847 192 l 1119 192 l 1119 925 l 1365 925 z "},"Щ":{"ha":1486,"x_min":90,"x_max":1479,"o":"m 1479 -175 l 1281 -175 l 1281 0 l 90 0 l 90 924 l 336 924 l 336 192 l 607 192 l 607 925 l 847 925 l 847 192 l 1119 192 l 1119 925 l 1365 925 l 1365 182 l 1479 182 l 1479 -175 z "},"Џ":{"ha":1018,"x_min":90,"x_max":926,"o":"m 926 0 l 608 0 l 608 -175 l 408 -175 l 408 0 l 90 0 l 90 925 l 332 925 l 332 192 l 686 192 l 686 924 l 926 924 l 926 0 z "},"Ь":{"ha":942,"x_min":90,"x_max":904,"o":"m 90 924 l 336 924 l 336 565 l 581 565 q 744 533 671 565 q 861 437 818 500 q 904 283 904 374 q 817 73 904 146 q 581 0 731 0 l 90 0 l 90 924 m 336 393 l 336 182 l 535 182 q 624 210 593 182 q 654 288 654 238 q 624 366 654 339 q 535 393 593 393 l 336 393 z "},"Ъ":{"ha":1079,"x_min":7,"x_max":1042,"o":"m 718 565 q 882 533 808 565 q 999 437 956 500 q 1042 283 1042 374 q 955 73 1042 146 q 718 0 868 0 l 228 0 l 228 732 l 7 732 l 7 924 l 474 924 l 474 565 l 718 565 m 672 182 q 761 210 731 182 q 792 288 792 238 q 761 366 792 339 q 672 393 731 393 l 474 393 l 474 182 l 672 182 z "},"Ы":{"ha":1310,"x_min":90,"x_max":1219,"o":"m 90 924 l 336 924 l 336 565 l 581 565 q 744 533 671 565 q 861 437 818 500 q 904 283 904 374 q 817 73 904 146 q 581 0 731 0 l 90 0 l 90 924 m 336 393 l 336 182 l 535 182 q 624 210 593 182 q 654 288 654 238 q 624 366 654 339 q 535 393 593 393 l 336 393 m 1219 924 l 1219 0 l 974 0 l 974 924 l 1219 924 z "},"Ѕ":{"ha":910,"x_min":40,"x_max":872,"o":"m 311 333 q 358 210 313 257 q 478 164 404 164 q 572 189 531 164 q 613 258 613 214 q 581 325 613 306 q 493 360 550 344 l 326 406 q 74 665 74 471 q 122 813 74 751 q 256 908 171 875 q 451 940 342 940 q 736 862 618 940 q 869 628 854 783 l 606 628 q 560 728 603 692 q 453 764 517 764 q 365 741 403 764 q 328 679 328 718 q 356 619 328 642 q 438 585 383 597 l 608 540 q 872 276 872 476 q 821 122 872 189 q 678 19 769 56 q 472 -17 588 -17 q 178 65 301 -17 q 40 333 54 147 l 311 333 z "},"Є":{"ha":992,"x_min":50,"x_max":950,"o":"m 950 340 q 813 79 931 175 q 510 -17 696 -17 q 171 108 292 -17 q 50 458 50 233 q 106 713 50 604 q 267 881 163 822 q 511 940 371 940 q 808 847 694 940 q 946 586 922 753 l 700 586 q 636 708 686 664 q 514 753 586 753 l 503 753 q 374 701 425 753 q 307 553 324 650 l 628 553 l 628 386 l 304 386 q 371 227 318 283 q 503 171 424 171 l 511 171 q 639 219 589 171 q 703 340 689 268 l 950 340 z "},"Э":{"ha":1025,"x_min":51,"x_max":976,"o":"m 503 940 q 754 881 647 940 q 919 713 861 822 q 976 458 976 604 q 852 108 976 233 q 503 -17 728 -17 q 192 79 313 -17 q 51 340 72 175 l 306 340 q 371 219 319 268 q 501 171 422 171 l 510 171 q 649 227 593 171 q 718 386 704 283 l 397 386 l 397 553 l 715 553 q 645 701 699 649 q 510 753 592 753 l 500 753 q 374 708 425 753 q 308 586 324 664 l 57 586 q 198 847 81 753 q 503 940 315 940 z "},"І":{"ha":422,"x_min":92,"x_max":338,"o":"m 338 924 l 338 0 l 92 0 l 92 924 l 338 924 z "},"Ј":{"ha":768,"x_min":25,"x_max":678,"o":"m 678 924 l 678 292 q 583 58 678 135 q 342 -18 489 -18 q 111 58 197 -18 q 25 292 25 133 l 25 385 l 251 383 l 251 267 q 276 196 251 219 q 342 172 300 172 l 343 172 q 409 196 385 172 q 433 267 433 219 l 433 924 l 678 924 z "},"Ю":{"ha":1413,"x_min":90,"x_max":1364,"o":"m 892 940 q 1147 876 1040 940 q 1309 703 1254 813 q 1364 464 1364 594 q 1310 223 1364 332 q 1149 49 1256 114 q 892 -17 1042 -17 q 659 35 758 -17 q 501 174 560 86 q 426 374 443 263 l 326 374 l 326 0 l 90 0 l 90 924 l 326 924 l 326 567 l 429 567 q 508 758 449 674 q 665 892 568 843 q 892 940 763 940 m 896 171 q 1054 249 999 171 q 1110 461 1110 326 q 1055 674 1110 596 q 897 753 1000 753 l 890 753 q 731 674 788 753 q 674 461 674 594 q 730 249 674 328 q 889 171 786 171 l 896 171 z "},"Я":{"ha":988,"x_min":44,"x_max":897,"o":"m 897 0 l 656 0 l 656 340 l 492 340 q 368 306 404 340 q 332 200 332 272 q 294 0 332 78 l 44 0 l 44 8 q 85 107 69 49 q 101 235 101 165 q 147 376 101 329 q 279 425 193 424 l 279 450 q 185 481 229 454 q 113 558 140 508 q 86 671 86 607 q 176 860 86 797 q 411 924 265 924 l 897 924 l 897 0 m 656 511 l 656 739 l 458 739 q 367 710 397 739 q 336 625 336 681 q 367 541 336 571 q 460 511 399 511 l 656 511 z "},"Ү":{"ha":936,"x_min":15,"x_max":918,"o":"m 15 924 l 271 924 l 393 683 q 457 529 429 613 l 479 529 q 542 685 508 617 l 664 924 l 918 924 l 590 356 l 590 0 l 344 0 l 344 356 l 15 924 z "},"Һ":{"ha":940,"x_min":90,"x_max":906,"o":"m 90 0 l 90 924 l 336 924 l 336 603 l 551 603 q 906 276 906 603 l 906 0 l 660 0 l 660 271 q 630 381 660 350 q 521 411 600 411 l 336 411 l 336 0 l 90 0 z "},"Ӏ":{"ha":422,"x_min":92,"x_max":338,"o":"m 338 924 l 338 0 l 92 0 l 92 924 l 338 924 z "},"а":{"ha":824,"x_min":32,"x_max":801,"o":"m 401 711 q 649 653 568 711 q 729 457 731 596 l 728 214 q 735 185 728 193 q 763 178 742 178 q 801 182 783 178 l 801 1 q 664 -12 721 -12 q 568 15 599 -12 q 542 92 538 42 l 542 104 l 522 110 q 420 16 489 49 q 274 -17 351 -17 q 114 28 179 -17 q 32 188 32 85 q 113 349 32 290 q 283 406 175 390 l 336 413 q 455 441 415 424 q 494 496 494 458 q 468 546 494 529 q 399 563 442 563 q 322 538 351 563 q 289 465 292 513 l 51 465 q 148 648 53 585 q 401 711 243 711 m 503 353 q 410 300 478 318 l 358 286 q 298 255 318 275 q 278 201 278 235 q 301 153 278 171 q 360 135 325 135 q 461 175 419 135 q 503 285 503 215 l 503 353 z "},"б":{"ha":871,"x_min":57,"x_max":824,"o":"m 57 447 q 172 838 57 714 q 503 968 288 963 l 549 969 q 617 970 563 969 q 712 974 671 971 q 776 983 753 978 l 776 788 q 643 783 728 783 q 599 782 629 782 l 544 781 q 357 728 418 776 q 267 579 296 679 l 263 568 l 286 558 q 376 644 319 613 q 510 676 433 676 q 665 638 593 676 q 780 525 736 599 q 824 351 824 451 q 778 158 824 242 q 647 29 732 75 q 449 -17 563 -17 q 160 104 263 -17 q 57 447 57 225 m 450 151 q 548 200 515 151 q 581 340 581 249 q 546 476 581 426 q 450 526 511 526 l 443 526 q 346 477 381 526 q 311 340 311 428 q 345 201 311 250 q 443 151 379 151 l 450 151 z "},"в":{"ha":811,"x_min":81,"x_max":776,"o":"m 521 694 q 685 651 625 694 q 744 528 744 608 q 699 422 744 463 q 589 374 653 381 l 589 349 q 722 305 668 346 q 776 192 776 264 q 715 53 776 107 q 539 0 654 0 l 81 0 l 81 694 l 521 694 m 422 413 q 486 431 463 413 q 510 486 510 450 q 487 538 510 521 q 422 556 464 556 l 311 556 l 311 413 l 422 413 m 433 135 q 529 214 529 135 q 505 274 529 251 q 433 296 481 296 l 311 296 l 311 135 l 433 135 z "},"г":{"ha":590,"x_min":81,"x_max":575,"o":"m 311 522 l 311 0 l 81 0 l 81 694 l 575 694 l 575 522 l 311 522 z "},"д":{"ha":911,"x_min":21,"x_max":881,"o":"m 881 172 l 881 -175 l 683 -175 l 683 0 l 222 0 l 222 -175 l 21 -175 l 21 171 l 47 171 q 178 333 178 171 l 178 694 l 785 694 l 785 172 l 881 172 m 568 522 l 383 522 l 383 358 q 363 258 383 303 q 292 182 343 214 l 300 161 q 353 170 328 168 q 421 172 378 172 l 568 172 l 568 522 z "},"е":{"ha":808,"x_min":47,"x_max":765,"o":"m 407 711 q 594 668 514 711 q 720 543 675 625 q 765 349 765 461 l 765 303 l 285 303 l 285 296 q 322 192 286 235 q 415 149 357 149 l 418 149 q 492 172 463 149 q 532 228 521 196 l 765 228 q 644 47 738 111 q 414 -17 551 -17 q 219 29 301 -17 q 92 157 136 75 q 47 344 47 239 q 92 541 47 458 q 219 667 138 624 q 407 711 300 711 m 531 431 q 495 524 526 488 q 410 561 464 561 l 404 561 q 319 524 350 561 q 285 431 289 488 l 531 431 z "},"ж":{"ha":1271,"x_min":-14,"x_max":1271,"o":"m 821 288 l 742 200 l 742 0 l 510 0 l 510 206 l 435 289 l 254 0 l -14 0 l 265 411 l 1 694 l 254 694 l 510 413 l 510 694 l 742 694 l 742 407 l 1001 694 l 1256 694 l 990 413 l 1271 0 l 1003 0 l 821 288 z "},"з":{"ha":757,"x_min":24,"x_max":725,"o":"m 392 -17 q 205 15 288 -17 q 74 105 122 46 q 24 243 26 164 l 263 243 q 301 176 268 199 q 381 153 335 153 q 454 169 425 153 q 483 217 483 186 q 460 258 483 243 q 397 274 438 274 l 301 274 l 301 435 l 399 435 q 458 449 436 435 q 481 489 481 463 q 453 533 481 518 q 386 549 426 549 q 310 528 343 549 q 268 468 276 507 l 31 468 q 144 649 47 586 q 383 711 240 711 q 563 685 489 711 q 674 617 636 660 q 711 522 711 574 q 672 423 711 463 q 568 374 632 383 l 568 351 q 681 301 638 344 q 725 196 725 257 q 688 91 725 139 q 576 13 651 43 q 392 -17 500 -17 z "},"и":{"ha":888,"x_min":81,"x_max":808,"o":"m 808 0 l 582 0 l 582 240 q 590 346 582 290 q 606 442 597 401 l 583 449 q 494 279 549 368 l 322 0 l 81 0 l 81 694 l 307 694 l 304 431 q 278 239 304 338 l 301 232 q 354 340 328 292 q 426 467 381 389 l 564 694 l 808 694 l 808 0 z "},"к":{"ha":856,"x_min":82,"x_max":856,"o":"m 415 278 l 324 179 l 324 0 l 82 0 l 82 694 l 324 694 l 324 406 l 593 694 l 844 694 l 576 415 l 856 0 l 588 0 l 415 278 z "},"л":{"ha":863,"x_min":13,"x_max":782,"o":"m 551 0 l 551 522 l 351 522 l 351 299 q 297 69 351 151 q 115 -14 242 -14 q 53 -8 85 -14 q 13 1 21 -3 l 13 183 q 41 179 24 181 q 74 178 58 178 q 128 202 114 178 q 142 289 142 226 l 142 694 l 782 694 l 782 0 l 551 0 z "},"м":{"ha":1114,"x_min":81,"x_max":1035,"o":"m 403 694 l 503 390 q 546 211 532 306 l 571 211 q 613 390 582 294 l 711 694 l 1035 694 l 1035 0 l 806 0 l 806 272 q 825 492 806 358 l 801 497 q 746 300 789 444 l 647 0 l 471 0 l 368 307 q 313 497 326 440 l 286 492 q 310 272 310 344 l 310 0 l 81 0 l 81 694 l 403 694 z "},"н":{"ha":861,"x_min":81,"x_max":782,"o":"m 782 694 l 782 0 l 550 0 l 550 269 l 311 269 l 311 0 l 81 0 l 81 694 l 311 694 l 311 442 l 550 442 l 550 694 l 782 694 z "},"о":{"ha":842,"x_min":47,"x_max":794,"o":"m 421 711 q 611 669 526 711 q 745 547 696 628 q 794 350 794 465 q 745 152 794 235 q 611 26 696 69 q 421 -17 526 -17 q 231 26 315 -17 q 97 152 146 69 q 47 350 47 235 q 97 547 47 465 q 231 669 146 628 q 421 711 315 711 m 425 153 q 518 207 488 153 q 549 349 549 261 q 517 488 549 435 q 425 542 486 542 l 417 542 q 324 488 354 542 q 293 349 293 435 q 324 207 293 261 q 417 153 354 153 l 425 153 z "},"п":{"ha":854,"x_min":81,"x_max":775,"o":"m 543 0 l 543 522 l 311 522 l 311 0 l 81 0 l 81 694 l 775 694 l 775 0 l 543 0 z "},"р":{"ha":869,"x_min":81,"x_max":822,"o":"m 535 711 q 686 665 621 711 q 787 535 751 618 q 822 350 822 453 q 788 163 822 246 q 688 31 753 79 q 535 -17 622 -17 q 399 21 451 -17 q 324 108 347 58 l 301 100 q 321 -6 321 54 l 321 -271 l 81 -271 l 81 694 l 321 694 l 321 689 q 301 593 321 644 l 325 585 q 402 674 347 636 q 535 711 457 711 m 440 542 q 344 490 375 542 q 313 349 313 438 q 344 206 313 260 q 440 153 375 153 l 446 153 q 541 207 508 153 q 574 349 574 261 q 542 490 574 438 q 446 542 510 542 l 440 542 z "},"с":{"ha":822,"x_min":47,"x_max":782,"o":"m 782 281 q 664 62 763 140 q 415 -17 565 -17 q 222 26 306 -17 q 93 151 139 68 q 47 350 47 233 q 95 547 47 465 q 227 669 143 628 q 417 711 311 711 q 657 640 561 711 q 775 440 753 569 l 531 440 q 497 513 524 483 q 424 542 469 542 l 418 542 q 325 492 356 542 q 294 350 294 442 q 325 205 294 257 q 418 153 356 153 l 424 153 q 503 190 474 153 q 540 281 532 228 l 782 281 z "},"т":{"ha":664,"x_min":17,"x_max":649,"o":"m 649 522 l 449 522 l 449 0 l 217 0 l 217 522 l 17 522 l 17 694 l 649 694 l 649 522 z "},"у":{"ha":858,"x_min":29,"x_max":779,"o":"m 779 694 l 779 24 q 683 -214 779 -140 q 401 -287 586 -287 q 144 -217 235 -287 q 29 -28 53 -147 l 288 -28 q 408 -121 308 -121 l 411 -121 q 511 -82 481 -121 q 542 40 542 -43 q 558 153 542 111 l 535 163 q 449 65 508 101 q 303 29 389 29 q 145 90 204 29 q 86 269 86 151 l 86 694 l 326 694 l 326 314 q 353 238 326 265 q 426 211 381 211 l 432 211 q 506 242 475 211 q 538 321 538 272 l 538 694 l 779 694 z "},"ф":{"ha":1213,"x_min":42,"x_max":1171,"o":"m 908 711 q 1044 665 985 711 q 1138 535 1104 618 q 1171 350 1171 453 q 1138 163 1171 247 q 1046 31 1106 79 q 908 -17 986 -17 q 790 20 835 -17 q 725 108 746 57 l 706 101 q 724 -6 724 49 l 724 -271 l 489 -271 l 489 -6 q 507 101 489 54 l 485 108 q 422 21 467 58 q 304 -17 376 -17 q 167 31 226 -17 q 74 163 107 79 q 42 350 42 247 q 75 535 42 453 q 168 665 108 618 q 304 711 228 711 q 419 674 372 711 q 485 585 465 636 l 506 593 q 489 688 489 643 l 489 965 l 724 965 l 724 688 q 707 593 724 643 l 726 585 q 792 674 746 636 q 908 711 839 711 m 385 153 q 468 206 440 153 q 496 349 496 260 q 468 489 496 436 q 385 542 440 542 l 379 542 q 299 489 325 542 q 272 349 272 436 q 299 206 272 260 q 379 153 325 153 l 385 153 m 832 153 q 914 206 888 153 q 940 349 940 260 q 914 490 940 438 q 832 542 888 542 l 828 542 q 743 489 771 542 q 715 349 715 436 q 743 206 715 260 q 828 153 771 153 l 832 153 z "},"х":{"ha":819,"x_min":15,"x_max":804,"o":"m 529 0 l 456 122 q 419 206 433 160 l 400 206 q 364 122 390 167 l 292 0 l 15 0 l 260 358 l 19 694 l 294 694 l 357 589 q 400 500 386 542 l 418 500 q 461 589 433 543 l 525 694 l 800 694 l 561 358 l 804 0 l 529 0 z "},"ч":{"ha":804,"x_min":36,"x_max":724,"o":"m 724 694 l 724 0 l 493 0 l 493 215 l 349 215 q 116 282 196 215 q 36 482 36 349 l 36 694 l 254 694 l 254 542 q 290 427 254 461 q 417 393 326 393 l 493 393 l 493 694 l 724 694 z "},"ц":{"ha":901,"x_min":81,"x_max":872,"o":"m 872 -175 l 674 -175 l 674 0 l 81 0 l 81 694 l 311 694 l 313 172 l 544 172 l 543 694 l 775 694 l 775 172 l 872 172 l 872 -175 z "},"ш":{"ha":1204,"x_min":81,"x_max":1125,"o":"m 1125 694 l 1125 0 l 81 0 l 81 694 l 314 694 l 314 182 l 493 182 l 493 694 l 713 694 l 713 182 l 893 182 l 893 694 l 1125 694 z "},"щ":{"ha":1249,"x_min":81,"x_max":1218,"o":"m 1218 -175 l 1021 -175 l 1021 0 l 81 0 l 81 694 l 314 694 l 314 182 l 493 182 l 493 694 l 711 694 l 711 182 l 893 182 l 893 694 l 1125 694 l 1125 172 l 1218 172 l 1218 -175 z "},"џ":{"ha":854,"x_min":81,"x_max":775,"o":"m 775 0 l 533 0 l 533 -175 l 333 -175 l 333 0 l 81 0 l 81 694 l 311 694 l 313 172 l 544 172 l 543 694 l 775 694 l 775 0 z "},"ь":{"ha":799,"x_min":81,"x_max":763,"o":"m 478 500 q 633 467 568 500 q 730 377 697 433 q 763 251 763 321 q 732 126 763 183 q 638 35 701 69 q 478 0 574 0 l 81 0 l 81 694 l 311 694 l 311 500 l 478 500 m 429 157 q 503 185 475 157 q 532 254 532 214 q 505 320 532 293 q 429 347 478 347 l 311 347 l 311 157 l 429 157 z "},"ъ":{"ha":918,"x_min":4,"x_max":882,"o":"m 597 500 q 752 467 688 500 q 849 377 817 433 q 882 251 882 321 q 851 126 882 183 q 757 35 821 69 q 597 0 693 0 l 200 0 l 200 514 l 4 514 l 4 694 l 431 694 l 431 500 l 597 500 m 549 157 q 623 185 594 157 q 651 254 651 214 q 624 320 651 293 q 549 347 597 347 l 431 347 l 431 157 l 549 157 z "},"ы":{"ha":1131,"x_min":81,"x_max":1057,"o":"m 478 500 q 633 467 568 500 q 730 377 697 433 q 763 251 763 321 q 732 126 763 183 q 638 35 701 69 q 478 0 574 0 l 81 0 l 81 694 l 311 694 l 311 500 l 478 500 m 1057 694 l 1057 0 l 817 0 l 817 694 l 1057 694 m 429 157 q 503 185 475 157 q 532 254 532 214 q 505 320 532 293 q 429 347 478 347 l 311 347 l 311 157 l 429 157 z "},"ѕ":{"ha":757,"x_min":36,"x_max":722,"o":"m 279 228 q 317 158 286 182 q 394 133 347 133 q 459 149 433 133 q 485 196 485 165 q 461 240 485 224 q 393 267 438 256 l 261 300 q 61 503 61 353 q 103 614 61 567 q 219 686 146 661 q 382 711 292 711 q 611 649 519 711 q 718 474 703 586 l 486 474 q 450 543 481 518 q 379 568 419 568 q 316 552 339 568 q 293 508 293 536 q 314 469 293 485 q 381 443 335 454 l 514 411 q 667 338 613 386 q 722 208 722 290 q 633 44 722 104 q 394 -17 544 -17 q 153 44 250 -17 q 36 228 56 106 l 279 228 z "},"є":{"ha":826,"x_min":47,"x_max":788,"o":"m 788 251 q 668 53 768 122 q 418 -17 568 -17 q 224 26 308 -17 q 94 151 140 68 q 47 350 47 233 q 96 547 47 465 q 228 669 144 628 q 418 711 313 711 q 660 647 564 711 q 779 460 757 582 l 535 460 q 497 519 525 496 q 425 542 469 542 l 418 542 q 338 510 368 542 q 296 417 307 478 l 519 417 l 519 286 l 294 286 q 338 188 306 222 q 421 154 369 154 l 426 154 q 504 183 475 154 q 540 251 533 211 l 788 251 z "},"э":{"ha":835,"x_min":47,"x_max":788,"o":"m 415 711 q 606 669 521 711 q 739 547 690 628 q 788 350 788 465 q 740 151 788 233 q 609 26 693 68 q 415 -17 525 -17 q 166 53 265 -17 q 47 251 67 122 l 293 251 q 330 183 300 211 q 408 154 360 154 l 414 154 q 497 188 465 154 q 540 286 529 222 l 314 286 l 314 417 l 539 417 q 497 510 528 478 q 415 542 465 542 l 410 542 q 338 518 365 542 q 300 460 310 494 l 54 460 q 174 647 78 582 q 415 711 271 711 z "},"і":{"ha":404,"x_min":75,"x_max":329,"o":"m 203 763 q 113 799 150 763 q 75 885 75 835 q 113 970 75 935 q 203 1006 150 1006 q 292 970 256 1006 q 329 885 329 935 q 292 799 329 835 q 203 763 254 763 m 322 694 l 322 0 l 82 0 l 82 694 l 322 694 z "},"ї":{"ha":390,"x_min":-76,"x_max":467,"o":"m 349 765 q 265 801 300 765 q 229 886 229 836 q 265 969 229 935 q 349 1004 300 1004 q 432 969 397 1004 q 467 886 467 935 q 432 801 467 836 q 349 765 397 765 m 43 765 q -41 801 -6 765 q -76 885 -76 836 q -41 968 -76 933 q 43 1003 -6 1003 q 126 968 92 1003 q 161 885 161 933 q 126 801 161 836 q 43 765 92 765 m 317 694 l 317 0 l 75 0 l 75 694 l 317 694 z "},"ј":{"ha":404,"x_min":-81,"x_max":326,"o":"m 200 763 q 110 799 147 763 q 72 885 72 835 q 110 970 72 935 q 200 1006 147 1006 q 290 970 253 1006 q 326 885 326 935 q 289 799 326 835 q 200 763 251 763 m -81 -97 q 14 -107 -31 -107 q 66 -90 49 -107 q 83 -28 83 -72 l 83 694 l 324 694 l 324 -26 q 256 -223 324 -161 q 33 -285 188 -285 q -28 -281 7 -285 q -81 -272 -62 -276 l -81 -97 z "},"ю":{"ha":1200,"x_min":81,"x_max":1153,"o":"m 779 711 q 969 669 885 711 q 1103 547 1054 628 q 1153 350 1153 465 q 1103 152 1153 235 q 969 26 1054 69 q 779 -17 885 -17 q 539 57 639 -17 q 414 264 439 131 l 321 264 l 321 0 l 81 0 l 81 694 l 321 694 l 321 426 l 411 426 q 535 637 435 563 q 779 711 636 711 m 783 153 q 876 207 846 153 q 907 349 907 261 q 876 488 907 435 q 783 542 846 542 l 775 542 q 683 488 714 542 q 651 349 651 435 q 682 207 651 261 q 775 153 713 153 l 783 153 z "},"я":{"ha":825,"x_min":36,"x_max":744,"o":"m 744 0 l 515 0 l 515 242 l 414 242 q 336 219 357 242 q 310 143 315 196 q 285 0 301 56 l 36 0 l 36 3 q 75 168 61 79 q 114 272 85 238 q 213 310 143 307 l 213 335 q 105 387 150 338 q 60 503 60 436 q 126 644 60 596 q 300 693 193 693 l 744 693 l 744 0 m 515 375 l 515 540 l 399 540 q 299 457 299 540 q 399 375 299 375 l 515 375 z "},"ү":{"ha":832,"x_min":10,"x_max":822,"o":"m 539 17 l 539 -271 l 299 -271 l 299 17 l 10 694 l 251 694 l 349 440 q 385 330 372 381 q 406 213 397 279 l 429 213 q 451 326 438 276 q 488 442 464 375 l 581 694 l 822 694 l 539 17 z "},"һ":{"ha":856,"x_min":83,"x_max":789,"o":"m 324 965 l 324 683 q 319 636 324 657 q 303 586 314 615 l 328 578 q 416 674 353 638 q 565 711 479 711 q 728 651 667 711 q 789 472 789 590 l 789 0 l 549 0 l 549 426 q 519 503 549 476 q 442 529 489 529 l 438 529 q 357 499 390 529 q 324 419 324 469 l 324 0 l 83 0 l 83 965 l 324 965 z "},"ӏ":{"ha":400,"x_min":83,"x_max":324,"o":"m 324 965 l 324 0 l 83 0 l 83 965 l 324 965 z "},"Α":{"ha":974,"x_min":11,"x_max":963,"o":"m 640 200 l 329 200 l 264 0 l 11 0 l 328 924 l 635 924 l 963 0 l 707 0 l 640 200 m 597 364 l 524 588 q 506 649 513 621 q 494 711 499 678 l 469 711 q 460 653 465 676 q 442 588 454 629 l 374 364 l 597 364 z "},"Β":{"ha":960,"x_min":90,"x_max":921,"o":"m 603 924 q 749 896 686 924 q 846 818 813 868 q 879 706 879 768 q 827 561 879 615 q 694 497 775 507 l 694 474 q 855 412 789 469 q 921 253 921 354 q 845 69 921 138 q 617 0 769 0 l 90 0 l 90 924 l 603 924 m 521 549 q 599 574 571 549 q 628 644 628 600 q 599 714 628 689 q 521 739 571 739 l 336 739 l 336 549 l 521 549 m 544 185 q 631 212 600 185 q 663 289 663 239 q 631 365 663 338 q 544 393 600 393 l 336 393 l 336 185 l 544 185 z "},"Γ":{"ha":703,"x_min":90,"x_max":696,"o":"m 696 732 l 331 732 l 331 0 l 90 0 l 90 924 l 696 924 l 696 732 z "},"Δ":{"ha":972,"x_min":24,"x_max":950,"o":"m 950 132 l 950 0 l 24 0 l 24 132 l 338 924 l 632 924 l 950 132 m 688 181 l 576 492 q 497 742 521 650 l 472 742 q 393 492 435 606 l 282 181 l 688 181 z "},"Ε":{"ha":867,"x_min":90,"x_max":811,"o":"m 811 192 l 811 0 l 90 0 l 90 924 l 801 924 l 801 732 l 336 732 l 336 558 l 754 558 l 754 378 l 336 378 l 336 192 l 811 192 z "},"Ζ":{"ha":869,"x_min":29,"x_max":833,"o":"m 411 607 q 533 724 481 683 l 526 742 q 372 732 464 732 l 69 732 l 69 924 l 824 924 l 824 747 l 463 325 q 329 200 403 256 l 335 183 q 504 192 413 192 l 833 192 l 833 0 l 29 0 l 29 176 l 411 607 z "},"Η":{"ha":1015,"x_min":92,"x_max":932,"o":"m 932 924 l 932 0 l 686 0 l 686 363 l 338 363 l 338 0 l 92 0 l 92 924 l 338 924 l 338 556 l 686 556 l 686 924 l 932 924 z "},"Θ":{"ha":1043,"x_min":50,"x_max":993,"o":"m 521 940 q 777 876 671 940 q 938 704 883 813 q 993 464 993 596 q 939 223 993 332 q 778 49 885 114 q 521 -17 671 -17 q 264 48 371 -17 q 103 222 157 113 q 50 463 50 331 q 105 702 50 593 q 266 876 160 811 q 521 940 372 940 m 525 171 q 684 249 628 171 q 740 461 740 328 q 685 674 740 596 q 526 753 629 753 l 521 753 q 360 674 417 753 q 303 461 303 594 q 359 249 303 328 q 518 171 415 171 l 525 171 m 664 558 l 664 378 l 390 378 l 390 558 l 664 558 z "},"Ι":{"ha":422,"x_min":92,"x_max":338,"o":"m 338 924 l 338 0 l 92 0 l 92 924 l 338 924 z "},"Κ":{"ha":1010,"x_min":90,"x_max":983,"o":"m 435 385 l 336 274 l 336 0 l 90 0 l 90 924 l 336 924 l 336 554 l 676 924 l 964 924 l 603 543 l 983 0 l 697 0 l 435 385 z "},"Λ":{"ha":996,"x_min":11,"x_max":985,"o":"m 721 0 l 574 438 q 508 676 528 572 l 485 676 q 419 436 464 567 l 274 0 l 11 0 l 340 924 l 654 924 l 985 0 l 721 0 z "},"Μ":{"ha":1279,"x_min":92,"x_max":1194,"o":"m 453 924 l 589 468 q 632 275 619 367 l 653 275 q 697 468 667 367 l 833 924 l 1194 924 l 1194 0 l 957 0 l 957 486 q 969 706 957 600 l 944 710 q 906 535 931 628 l 751 0 l 535 0 l 382 535 q 342 710 361 606 l 315 706 q 329 496 329 603 l 329 0 l 92 0 l 92 924 l 453 924 z "},"Ν":{"ha":1024,"x_min":92,"x_max":940,"o":"m 343 924 l 603 503 q 657 409 636 449 q 697 321 678 369 l 722 326 q 707 488 707 410 l 706 924 l 940 924 l 940 0 l 690 0 l 421 436 q 336 606 367 522 l 313 600 q 326 432 326 500 l 326 0 l 92 0 l 92 924 l 343 924 z "},"Ξ":{"ha":888,"x_min":74,"x_max":832,"o":"m 813 924 l 813 725 l 82 725 l 82 924 l 813 924 m 771 567 l 771 374 l 124 374 l 124 567 l 771 567 m 832 199 l 832 0 l 74 0 l 74 199 l 832 199 z "},"Ο":{"ha":1043,"x_min":50,"x_max":993,"o":"m 521 940 q 777 876 671 940 q 938 704 883 813 q 993 464 993 596 q 939 223 993 332 q 778 49 885 114 q 521 -17 671 -17 q 264 48 371 -17 q 103 222 157 113 q 50 463 50 331 q 105 702 50 593 q 266 876 160 811 q 521 940 372 940 m 525 171 q 685 249 629 171 q 740 461 740 326 q 685 674 740 596 q 526 753 629 753 l 521 753 q 360 674 417 753 q 303 461 303 594 q 359 249 303 328 q 518 171 415 171 l 525 171 z "},"Π":{"ha":1021,"x_min":90,"x_max":931,"o":"m 685 0 l 685 724 l 335 724 l 335 0 l 90 0 l 90 924 l 931 924 l 931 0 l 685 0 z "},"Ρ":{"ha":914,"x_min":90,"x_max":883,"o":"m 532 924 q 788 844 693 924 q 883 628 883 765 q 787 401 883 483 q 528 319 690 319 l 336 319 l 336 0 l 90 0 l 90 924 l 532 924 m 508 499 q 600 531 568 499 q 632 619 632 563 q 600 706 632 675 q 508 738 568 738 l 336 738 l 336 499 l 508 499 z "},"Σ":{"ha":790,"x_min":18,"x_max":735,"o":"m 444 731 q 293 740 344 731 l 286 724 q 360 653 328 690 l 518 468 l 518 461 l 364 278 q 327 238 343 254 q 286 201 311 222 l 293 183 q 451 193 361 193 l 735 193 l 735 0 l 18 0 l 18 182 l 251 464 l 18 742 l 18 924 l 725 924 l 725 731 l 444 731 z "},"Τ":{"ha":822,"x_min":7,"x_max":815,"o":"m 815 732 l 535 732 l 535 0 l 289 0 l 289 732 l 7 732 l 7 924 l 815 924 l 815 732 z "},"Υ":{"ha":936,"x_min":15,"x_max":918,"o":"m 15 924 l 271 924 l 393 683 q 457 529 429 613 l 479 529 q 542 685 508 617 l 664 924 l 918 924 l 590 356 l 590 0 l 344 0 l 344 356 l 15 924 z "},"Φ":{"ha":1193,"x_min":47,"x_max":1146,"o":"m 1146 463 q 1024 190 1146 286 q 701 88 903 94 l 701 0 l 492 0 l 492 88 q 169 191 290 94 q 47 463 47 288 q 169 734 47 639 q 492 836 290 829 l 492 924 l 701 924 l 701 836 q 1024 733 901 829 q 1146 463 1146 638 m 285 463 q 341 319 285 371 q 492 267 397 268 l 492 657 q 340 605 396 656 q 285 463 285 554 m 910 463 q 853 605 910 554 q 701 657 796 656 l 701 267 q 853 320 796 268 q 910 463 910 372 z "},"Χ":{"ha":976,"x_min":10,"x_max":968,"o":"m 696 0 l 563 186 q 499 303 529 233 l 479 303 q 413 183 456 244 l 282 0 l 10 0 l 353 478 l 35 924 l 306 924 l 414 772 q 479 656 442 733 l 499 656 q 563 769 524 713 l 671 924 l 943 924 l 625 478 l 968 0 l 696 0 z "},"Ψ":{"ha":1118,"x_min":54,"x_max":1064,"o":"m 1064 924 l 1064 576 q 961 297 1064 400 q 675 189 858 193 l 675 0 l 444 0 l 444 189 q 156 297 258 193 q 54 576 54 400 l 54 924 l 283 924 l 283 571 q 322 431 283 476 q 444 376 360 385 l 444 924 l 675 924 l 675 376 q 798 431 760 385 q 836 571 836 476 l 836 924 l 1064 924 z "},"Ω":{"ha":1033,"x_min":50,"x_max":983,"o":"m 54 182 l 113 182 q 195 180 161 182 q 261 168 229 178 l 267 192 q 50 529 50 293 q 110 739 50 644 q 277 887 171 833 q 517 940 383 940 q 756 887 650 940 q 923 740 863 833 q 983 529 983 646 q 929 324 983 404 q 765 192 875 243 l 772 168 q 828 179 799 176 q 910 182 857 182 l 978 182 l 978 0 l 582 0 l 582 215 q 698 337 660 267 q 736 501 736 407 q 677 684 736 614 q 521 754 618 754 l 514 754 q 356 683 415 754 q 296 497 296 613 q 450 215 296 324 l 450 0 l 54 0 l 54 182 z "},"Ά":{"ha":1000,"x_min":-10,"x_max":963,"o":"m 172 724 l -10 724 l 74 924 l 292 924 l 172 724 m 640 199 l 329 199 l 264 0 l 11 0 l 328 924 l 635 924 l 963 0 l 707 0 l 640 199 m 597 364 l 524 588 q 506 649 513 621 q 494 711 499 678 l 469 711 q 460 653 465 676 q 442 588 454 629 l 374 364 l 597 364 z "},"Έ":{"ha":1125,"x_min":-8,"x_max":1069,"o":"m 172 724 l -8 724 l 74 924 l 292 924 l 172 724 m 1069 192 l 1069 0 l 350 0 l 350 924 l 1061 924 l 1061 732 l 594 732 l 594 558 l 1014 558 l 1014 378 l 594 378 l 594 192 l 1069 192 z "},"Ή":{"ha":1278,"x_min":-8,"x_max":1188,"o":"m 172 724 l -8 724 l 74 924 l 292 924 l 172 724 m 1188 924 l 1188 0 l 942 0 l 942 363 l 593 363 l 593 0 l 347 0 l 347 924 l 593 924 l 593 556 l 942 556 l 942 924 l 1188 924 z "},"Ί":{"ha":685,"x_min":-8,"x_max":594,"o":"m 172 724 l -8 724 l 74 924 l 292 924 l 172 724 m 594 924 l 594 0 l 349 0 l 349 924 l 594 924 z "},"Ό":{"ha":1178,"x_min":-24,"x_max":1128,"o":"m 656 940 q 911 876 804 940 q 1073 703 1018 813 q 1128 464 1128 594 q 1074 223 1128 332 q 913 49 1019 114 q 656 -17 806 -17 q 399 48 506 -17 q 238 222 292 113 q 183 463 183 331 q 238 702 183 593 q 400 876 293 811 q 656 940 507 940 m 158 724 l -24 724 l 60 924 l 278 924 l 158 724 m 660 171 q 818 249 763 171 q 874 461 874 326 q 819 674 874 596 q 661 753 764 753 l 654 753 q 494 674 551 753 q 438 461 438 594 q 494 249 438 328 q 653 171 550 171 l 660 171 z "},"Ύ":{"ha":1242,"x_min":3,"x_max":1225,"o":"m 185 724 l 3 724 l 86 924 l 303 924 l 185 724 m 321 924 l 576 924 l 699 683 q 763 529 735 613 l 785 529 q 849 683 815 622 l 969 924 l 1225 924 l 897 356 l 897 0 l 651 0 l 651 356 l 321 924 z "},"Ώ":{"ha":1178,"x_min":-24,"x_max":1128,"o":"m 200 182 l 257 182 q 340 180 307 182 q 406 168 374 178 l 413 192 q 194 529 194 293 q 255 740 194 646 q 422 887 315 833 q 663 940 529 940 q 901 887 796 940 q 1067 740 1007 833 q 1128 532 1128 647 q 1074 324 1128 406 q 910 192 1021 243 l 917 168 q 972 179 943 176 q 1054 182 1001 182 l 1124 182 l 1124 0 l 728 0 l 728 215 q 843 336 804 267 q 882 497 882 406 q 823 683 882 613 q 665 754 764 754 l 660 754 q 501 684 560 754 q 442 497 442 614 q 596 215 442 324 l 596 0 l 200 0 l 200 182 m 158 724 l -24 724 l 60 924 l 278 924 l 158 724 z "},"Ϊ":{"ha":421,"x_min":-14,"x_max":450,"o":"m 92 975 q 17 1006 49 975 q -14 1081 -14 1038 q 17 1156 -14 1125 q 92 1186 49 1186 q 165 1156 135 1186 q 196 1081 196 1125 q 165 1006 196 1036 q 92 975 135 975 m 344 975 q 270 1006 301 975 q 239 1081 239 1038 q 270 1156 239 1125 q 344 1186 301 1186 q 419 1156 389 1186 q 450 1081 450 1125 q 419 1006 450 1038 q 344 975 389 975 m 338 924 l 338 0 l 92 0 l 92 924 l 338 924 z "},"Ϋ":{"ha":936,"x_min":15,"x_max":918,"o":"m 338 975 q 263 1006 294 975 q 232 1081 232 1038 q 263 1156 232 1125 q 338 1186 294 1186 q 413 1156 382 1186 q 443 1081 443 1125 q 413 1006 443 1038 q 338 975 382 975 m 590 975 q 516 1006 547 975 q 485 1081 485 1038 q 516 1156 485 1125 q 590 1186 547 1186 q 665 1156 635 1186 q 696 1081 696 1125 q 665 1006 696 1038 q 590 975 635 975 m 15 924 l 271 924 l 393 683 q 457 529 429 613 l 479 529 q 542 683 508 619 l 664 924 l 918 924 l 590 356 l 590 0 l 344 0 l 344 356 l 15 924 z "},"α":{"ha":897,"x_min":47,"x_max":875,"o":"m 333 -17 q 182 30 247 -17 q 82 158 117 76 q 47 344 47 240 q 82 532 47 449 q 181 663 117 615 q 331 711 244 711 q 467 674 410 711 q 546 586 524 638 l 569 593 q 553 638 557 622 q 549 685 549 654 l 549 694 l 790 694 l 790 228 q 799 189 790 200 q 832 178 808 178 q 854 180 840 178 q 875 183 868 182 l 875 3 q 756 -12 801 -12 q 636 22 679 -12 q 592 108 593 56 l 592 119 l 571 122 q 490 25 550 67 q 333 -17 429 -17 m 429 153 q 526 207 494 153 q 557 346 557 261 q 526 487 557 432 q 429 542 494 542 l 424 542 q 327 488 358 542 q 296 346 296 435 q 327 205 296 257 q 424 153 358 153 l 429 153 z "},"β":{"ha":879,"x_min":78,"x_max":842,"o":"m 78 629 q 183 897 78 811 q 447 982 289 982 q 613 953 538 982 q 733 869 689 924 q 778 739 778 814 q 726 595 778 654 q 588 526 675 536 l 588 503 q 776 422 711 489 q 842 256 842 354 q 802 108 842 169 q 694 15 763 47 q 544 -17 626 -17 q 401 14 461 -17 q 315 99 342 44 l 294 90 q 309 26 306 53 q 313 -60 313 -1 l 313 -271 l 78 -271 l 78 629 m 454 147 q 558 184 517 147 q 600 278 600 221 q 559 378 600 340 q 443 415 518 415 l 400 415 l 400 582 l 436 582 q 528 615 496 582 q 561 703 561 649 q 528 779 561 750 q 443 808 494 808 l 438 808 q 344 767 378 808 q 311 654 311 726 l 311 311 q 346 188 311 228 q 451 147 381 147 l 454 147 z "},"γ":{"ha":854,"x_min":10,"x_max":846,"o":"m 544 -22 l 544 -271 l 311 -271 l 311 -22 l 10 694 l 258 694 l 381 342 q 417 182 410 254 l 439 182 q 479 342 449 251 l 599 694 l 846 694 l 544 -22 z "},"δ":{"ha":842,"x_min":47,"x_max":794,"o":"m 613 642 q 749 508 704 583 q 794 333 794 433 q 745 145 794 225 q 611 24 696 65 q 419 -18 526 -18 q 228 22 313 -18 q 96 138 144 61 q 47 322 47 214 q 81 469 47 401 q 173 576 114 536 q 307 615 232 615 q 344 613 319 615 l 353 633 l 267 688 l 207 728 q 129 769 163 756 l 129 965 l 738 965 l 738 793 l 531 793 q 396 804 463 793 l 390 782 q 447 753 414 774 q 486 728 481 732 l 613 642 m 424 143 q 517 195 486 143 q 549 331 549 247 q 517 467 549 415 q 424 519 486 519 l 418 519 q 324 468 356 519 q 293 331 293 417 q 324 196 293 249 q 418 143 356 143 l 424 143 z "},"ε":{"ha":779,"x_min":36,"x_max":757,"o":"m 383 -17 q 131 38 226 -17 q 36 189 36 92 q 77 297 36 253 q 196 351 118 342 l 196 374 q 86 423 125 382 q 47 522 47 464 q 91 621 47 578 q 212 688 135 664 q 386 711 289 711 q 632 649 532 711 q 750 468 732 586 l 508 468 q 465 527 499 506 q 386 549 431 549 q 313 533 344 549 q 282 486 282 517 q 313 448 282 461 q 379 435 343 435 l 469 435 l 469 274 l 378 274 q 308 259 335 274 q 281 218 281 244 q 311 168 281 185 q 383 151 342 151 q 467 176 429 151 q 514 243 506 201 l 757 243 q 641 53 742 122 q 383 -17 540 -17 z "},"ζ":{"ha":750,"x_min":76,"x_max":725,"o":"m 486 -175 q 504 -132 499 -150 q 510 -92 510 -114 q 483 -35 510 -57 q 403 10 456 -14 l 292 57 q 130 167 183 101 q 76 335 76 232 q 169 586 76 469 q 406 783 261 703 l 399 804 q 334 794 364 796 q 247 792 304 792 l 101 792 l 101 965 l 719 965 l 719 800 q 421 571 519 679 q 322 372 322 463 q 351 282 322 318 q 446 217 379 246 l 535 178 q 676 86 626 138 q 725 -42 725 35 q 694 -175 725 -101 l 486 -175 z "},"η":{"ha":892,"x_min":26,"x_max":818,"o":"m 26 689 q 135 697 83 697 q 264 667 218 697 q 310 585 310 638 l 310 564 l 332 558 q 417 669 356 626 q 575 711 478 711 q 749 649 681 711 q 818 463 818 588 l 818 -271 l 582 -271 l 582 424 q 551 502 582 475 q 474 529 521 529 l 469 529 q 388 499 421 529 q 354 419 354 469 l 354 0 l 113 0 l 113 471 q 67 519 113 519 q 26 517 51 519 l 26 689 z "},"θ":{"ha":863,"x_min":50,"x_max":813,"o":"m 431 982 q 644 915 558 982 q 772 736 731 849 q 813 485 813 624 q 772 233 813 346 q 645 52 731 119 q 431 -15 560 -15 q 216 52 301 -15 q 90 233 131 119 q 50 485 50 346 q 92 735 50 622 q 219 915 133 847 q 431 982 304 982 m 429 813 q 323 747 360 813 q 281 567 286 682 l 582 567 q 435 813 571 813 l 429 813 m 433 153 q 541 219 504 153 q 582 406 578 286 l 281 406 q 322 219 285 286 q 429 153 358 153 l 433 153 z "},"ι":{"ha":453,"x_min":72,"x_max":431,"o":"m 324 -12 q 131 59 190 -12 q 72 268 72 131 l 72 694 l 313 694 l 313 258 q 378 182 313 182 q 431 188 408 182 l 431 0 q 385 -8 418 -4 q 324 -12 351 -12 z "},"κ":{"ha":843,"x_min":81,"x_max":843,"o":"m 413 267 l 321 169 l 321 0 l 81 0 l 81 694 l 321 694 l 321 400 l 519 619 q 603 685 560 665 q 697 706 646 706 q 794 697 744 706 l 794 521 q 736 528 756 528 q 690 517 708 528 q 647 479 671 506 l 575 400 l 843 0 l 582 0 l 413 267 z "},"λ":{"ha":806,"x_min":13,"x_max":800,"o":"m 689 -11 q 569 21 610 -11 q 497 133 528 53 l 443 283 q 411 440 415 357 l 386 440 q 375 358 381 392 q 357 286 369 324 l 258 0 l 13 0 l 293 672 l 269 738 q 175 804 250 804 q 111 794 147 804 l 111 967 q 224 981 167 981 q 344 963 299 981 q 425 896 390 944 q 494 753 460 847 l 683 235 q 709 188 696 201 q 749 174 722 174 q 800 179 767 174 l 800 3 q 689 -11 744 -11 z "},"μ":{"ha":883,"x_min":81,"x_max":860,"o":"m 818 178 q 840 180 829 178 q 860 183 851 182 l 860 4 q 742 -12 818 -12 q 615 24 646 -12 q 585 111 585 61 l 585 118 l 563 121 q 500 22 546 60 q 394 -15 454 -15 q 349 -8 365 -15 q 318 8 333 -1 l 303 -4 q 313 -42 310 -25 q 315 -94 315 -58 l 315 -271 l 81 -271 l 81 694 l 321 694 l 321 269 q 345 192 321 219 q 418 165 369 165 l 422 165 q 505 199 472 165 q 538 288 538 232 l 538 694 l 778 694 l 778 240 q 785 192 778 206 q 818 178 792 178 z "},"ν":{"ha":813,"x_min":10,"x_max":804,"o":"m 804 694 l 544 0 l 269 0 l 10 694 l 254 694 l 356 382 q 394 196 383 299 l 418 196 q 458 383 432 304 l 560 694 l 804 694 z "},"ξ":{"ha":764,"x_min":67,"x_max":726,"o":"m 486 -175 q 511 -89 511 -118 q 487 -36 511 -57 q 410 7 463 -15 l 300 53 q 123 155 179 104 q 67 289 67 206 q 119 413 67 361 q 249 468 171 464 l 249 492 q 147 542 185 497 q 110 643 110 586 q 150 742 110 703 q 250 794 190 782 l 244 818 q 136 806 193 806 l 79 806 l 79 965 l 681 965 l 681 792 l 488 792 q 383 763 419 792 q 347 689 347 733 q 382 622 347 646 q 486 597 417 597 l 628 597 l 628 426 l 442 426 q 342 401 375 426 q 308 336 308 376 q 339 272 308 300 q 433 219 369 244 l 543 174 q 681 85 636 135 q 726 -37 726 35 q 693 -175 726 -111 l 486 -175 z "},"ο":{"ha":842,"x_min":47,"x_max":794,"o":"m 421 711 q 611 669 526 711 q 745 547 696 628 q 794 350 794 465 q 745 152 794 235 q 611 26 696 69 q 421 -17 526 -17 q 231 26 315 -17 q 97 152 146 69 q 47 350 47 235 q 97 547 47 465 q 231 669 146 628 q 421 711 315 711 m 425 153 q 518 207 488 153 q 549 349 549 261 q 517 488 549 435 q 425 542 486 542 l 417 542 q 324 488 354 542 q 293 349 293 435 q 324 207 293 261 q 417 153 354 153 l 425 153 z "},"π":{"ha":989,"x_min":36,"x_max":949,"o":"m 799 522 l 799 279 q 817 206 799 226 q 878 186 836 186 q 943 192 904 186 l 943 1 q 896 -8 932 -3 q 824 -14 860 -14 q 633 58 692 -14 q 575 239 575 131 l 575 522 l 417 522 l 417 0 l 185 0 l 185 522 l 36 522 l 36 694 l 949 694 l 949 522 l 799 522 z "},"ρ":{"ha":842,"x_min":50,"x_max":794,"o":"m 424 711 q 613 669 529 711 q 746 547 697 628 q 794 350 794 465 q 753 152 794 235 q 640 26 711 69 q 482 -17 569 -17 q 367 18 415 -17 q 293 111 318 53 l 269 101 q 290 -26 290 47 l 290 -271 l 50 -271 l 50 354 q 99 549 50 468 q 233 670 149 629 q 424 711 318 711 m 426 153 q 521 207 489 153 q 553 349 553 261 q 521 488 553 435 q 426 542 489 542 l 419 542 q 326 488 357 542 q 294 349 294 435 q 326 208 294 263 q 419 153 357 153 l 426 153 z "},"ς":{"ha":781,"x_min":35,"x_max":753,"o":"m 481 -175 q 500 -127 494 -144 q 506 -86 506 -110 q 474 -29 506 -50 q 369 22 443 -8 l 281 58 q 97 185 158 108 q 35 383 35 261 q 82 558 35 483 q 211 672 129 632 q 396 711 293 711 q 634 642 536 711 q 753 440 732 572 l 510 440 q 474 513 504 483 q 399 542 444 542 l 393 542 q 308 503 338 542 q 278 403 278 465 q 311 295 278 338 q 411 226 344 253 l 496 193 q 660 101 600 153 q 721 -36 721 50 q 714 -106 721 -76 q 690 -175 707 -135 l 481 -175 z "},"σ":{"ha":883,"x_min":47,"x_max":867,"o":"m 867 515 l 810 515 q 710 525 751 515 l 701 504 q 768 429 743 476 q 793 314 793 382 q 744 139 793 214 q 610 24 694 64 q 421 -17 525 -17 q 231 26 315 -17 q 97 149 146 68 q 47 344 47 231 q 96 537 47 458 q 228 655 144 615 q 418 694 311 694 l 867 694 l 867 515 m 425 153 q 518 204 488 153 q 549 343 549 256 q 517 482 549 429 q 425 535 486 535 l 417 535 q 324 482 354 535 q 293 343 293 429 q 324 205 293 257 q 417 153 354 153 l 425 153 z "},"τ":{"ha":693,"x_min":17,"x_max":678,"o":"m 453 524 l 453 279 q 472 206 453 226 q 533 186 490 186 q 599 192 563 186 l 599 1 q 552 -8 586 -3 q 478 -14 518 -14 q 281 59 344 -14 q 217 239 217 132 l 217 524 l 17 524 l 17 694 l 678 694 l 678 524 l 453 524 z "},"υ":{"ha":826,"x_min":72,"x_max":776,"o":"m 419 -15 q 169 59 267 -15 q 72 281 72 133 l 72 694 l 313 694 l 313 293 q 341 199 313 232 q 417 165 369 165 l 425 165 q 513 215 483 165 q 542 344 542 264 q 519 526 542 442 q 449 694 496 611 l 679 694 q 753 544 729 624 q 776 369 776 464 q 732 162 776 249 q 607 30 688 75 q 419 -15 526 -15 z "},"φ":{"ha":1067,"x_min":47,"x_max":1021,"o":"m 1021 350 q 970 163 1021 242 q 832 40 919 83 q 639 -7 744 -3 l 639 -271 l 428 -271 l 428 -7 q 235 40 321 -3 q 98 160 149 82 q 47 349 47 239 q 92 527 47 451 q 210 646 136 603 q 371 697 283 689 l 371 522 q 296 465 325 508 q 267 349 267 422 q 311 214 267 261 q 433 164 356 167 l 433 472 q 501 654 433 597 q 667 711 568 711 q 848 667 767 711 q 975 540 929 622 q 1021 350 1021 457 m 633 164 q 757 215 714 165 q 800 350 800 264 q 765 481 800 428 q 679 533 729 533 q 644 522 656 533 q 633 482 633 510 l 633 164 z "},"χ":{"ha":843,"x_min":10,"x_max":833,"o":"m 307 229 l 163 481 q 78 536 132 533 q 29 531 51 536 l 29 697 q 125 708 82 708 q 244 686 197 708 q 322 613 292 664 l 365 533 q 397 474 386 499 q 418 411 407 450 l 440 411 q 490 533 458 479 l 583 694 l 825 694 l 549 229 l 683 -15 q 701 -49 686 -21 q 738 -92 715 -76 q 789 -108 760 -108 q 833 -103 803 -108 l 833 -274 q 746 -283 789 -283 q 633 -262 682 -283 q 553 -187 585 -240 l 485 -72 q 453 -13 463 -33 q 438 32 443 7 l 415 32 q 368 -71 404 -10 l 251 -271 l 10 -271 l 307 229 z "},"ψ":{"ha":1103,"x_min":72,"x_max":1054,"o":"m 972 694 q 1034 541 1014 613 q 1054 379 1054 469 q 1006 165 1054 254 q 871 31 958 76 q 668 -17 783 -15 l 668 -271 l 450 -271 l 450 -17 q 175 73 278 -15 q 72 319 72 161 l 72 693 l 304 693 l 304 369 q 338 215 304 264 q 450 165 372 165 l 450 849 l 668 849 l 668 167 q 828 382 828 168 q 744 694 828 517 l 972 694 z "},"ω":{"ha":1107,"x_min":50,"x_max":1058,"o":"m 340 -17 q 126 76 203 -17 q 50 332 50 168 q 143 694 50 553 l 389 694 q 313 514 338 606 q 289 321 289 422 q 310 199 289 238 q 376 160 331 160 q 433 190 414 160 q 453 272 453 219 l 453 497 l 654 497 l 654 272 q 674 190 654 219 q 732 160 694 160 q 799 199 778 160 q 821 321 821 239 q 796 514 821 422 q 718 694 771 606 l 965 694 q 1058 332 1058 553 q 983 76 1058 168 q 768 -17 907 -17 q 633 28 692 -17 q 565 161 574 74 l 542 161 q 474 28 531 74 q 340 -17 417 -17 z "},"ί":{"ha":453,"x_min":72,"x_max":431,"o":"m 282 786 l 100 786 l 183 986 l 400 986 l 282 786 m 324 -12 q 131 59 190 -12 q 72 268 72 131 l 72 694 l 313 694 l 313 258 q 378 182 313 182 q 431 188 408 182 l 431 0 q 385 -8 418 -4 q 324 -12 351 -12 z "},"ϊ":{"ha":453,"x_min":-82,"x_max":461,"o":"m 343 765 q 259 801 294 765 q 224 886 224 836 q 259 969 224 935 q 343 1004 294 1004 q 426 969 392 1004 q 461 886 461 935 q 426 801 461 836 q 343 765 392 765 m 38 765 q -47 801 -11 765 q -82 885 -82 836 q -47 968 -82 933 q 38 1003 -11 1003 q 121 968 86 1003 q 156 885 156 933 q 121 801 156 836 q 38 765 86 765 m 324 -12 q 131 59 190 -12 q 72 268 72 131 l 72 694 l 313 694 l 313 258 q 378 182 313 182 q 431 188 408 182 l 431 0 q 385 -8 418 -4 q 324 -12 351 -12 z "},"ΐ":{"ha":453,"x_min":-171,"x_max":611,"o":"m -51 775 q -135 810 -100 775 q -171 896 -171 846 q -135 979 -171 944 q -51 1014 -100 1014 q 31 979 -4 1014 q 67 896 67 944 q 32 810 67 846 q -51 775 -3 775 m 493 775 q 409 810 444 775 q 374 894 374 844 q 409 978 374 943 q 493 1013 444 1013 q 576 978 542 1013 q 611 894 611 943 q 576 810 611 844 q 493 775 542 775 m 263 801 l 81 801 l 164 1001 l 381 1001 l 263 801 m 324 -12 q 131 59 190 -12 q 72 268 72 131 l 72 694 l 313 694 l 313 258 q 378 182 313 182 q 431 188 408 182 l 431 0 q 385 -8 418 -4 q 324 -12 351 -12 z "},"ύ":{"ha":826,"x_min":72,"x_max":776,"o":"m 475 786 l 293 786 l 376 986 l 593 986 l 475 786 m 419 -15 q 169 59 267 -15 q 72 281 72 133 l 72 694 l 313 694 l 313 293 q 341 199 313 232 q 417 165 369 165 l 425 165 q 513 215 483 165 q 542 344 542 264 q 519 526 542 442 q 449 694 496 611 l 679 694 q 753 542 729 622 q 776 368 776 463 q 732 162 776 249 q 607 30 688 75 q 419 -15 526 -15 z "},"ϋ":{"ha":826,"x_min":72,"x_max":776,"o":"m 538 765 q 453 801 489 765 q 418 886 418 836 q 453 969 418 935 q 538 1004 489 1004 q 621 969 586 1004 q 656 886 656 935 q 621 801 656 836 q 538 765 586 765 m 232 765 q 148 801 183 765 q 113 885 113 836 q 148 968 113 933 q 232 1003 183 1003 q 315 968 281 1003 q 350 885 350 933 q 315 801 350 836 q 232 765 281 765 m 419 -15 q 169 59 267 -15 q 72 281 72 133 l 72 694 l 313 694 l 313 293 q 341 199 313 232 q 417 165 369 165 l 425 165 q 513 215 483 165 q 542 344 542 264 q 519 526 542 442 q 449 694 496 611 l 679 694 q 753 542 729 622 q 776 368 776 463 q 732 162 776 249 q 607 30 688 75 q 419 -15 526 -15 z "},"ΰ":{"ha":826,"x_min":22,"x_max":804,"o":"m 142 775 q 58 810 93 775 q 22 896 22 846 q 58 979 22 944 q 142 1014 93 1014 q 225 979 190 1014 q 260 896 260 944 q 225 810 260 846 q 142 775 190 775 m 686 775 q 602 810 638 775 q 567 894 567 844 q 602 978 567 943 q 686 1013 638 1013 q 769 978 735 1013 q 804 894 804 943 q 769 810 804 844 q 686 775 735 775 m 456 801 l 274 801 l 357 1001 l 574 1001 l 456 801 m 419 -15 q 169 59 267 -15 q 72 281 72 133 l 72 694 l 313 694 l 313 293 q 341 199 313 232 q 417 165 369 165 l 425 165 q 513 215 483 165 q 542 344 542 264 q 519 526 542 442 q 449 694 496 611 l 679 694 q 753 542 729 622 q 776 368 776 463 q 732 162 776 249 q 607 30 688 75 q 419 -15 526 -15 z "},"ό":{"ha":842,"x_min":47,"x_max":794,"o":"m 510 786 l 328 786 l 411 986 l 628 986 l 510 786 m 421 711 q 611 669 526 711 q 745 547 696 628 q 794 350 794 465 q 745 152 794 235 q 611 26 696 69 q 421 -17 526 -17 q 231 26 315 -17 q 97 152 146 69 q 47 350 47 235 q 97 547 47 465 q 231 669 146 628 q 421 711 315 711 m 425 153 q 518 207 488 153 q 549 349 549 261 q 517 488 549 435 q 425 542 486 542 l 417 542 q 324 488 354 542 q 293 349 293 435 q 324 207 293 261 q 417 153 354 153 l 425 153 z "},"ώ":{"ha":1107,"x_min":49,"x_max":1058,"o":"m 640 786 l 458 786 l 542 986 l 758 986 l 640 786 m 339 -17 q 125 76 201 -17 q 49 332 49 169 q 143 694 49 554 l 389 694 q 313 514 338 606 q 289 321 289 422 q 310 199 289 238 q 376 160 331 160 q 433 190 414 160 q 453 272 453 219 l 453 497 l 654 497 l 654 272 q 674 190 654 219 q 732 160 694 160 q 799 199 778 160 q 821 321 821 239 q 796 513 821 422 q 718 694 771 604 l 965 694 q 1058 332 1058 553 q 983 76 1058 168 q 768 -17 907 -17 q 633 28 692 -17 q 565 161 574 74 l 542 161 q 473 28 531 74 q 339 -17 415 -17 z "},"ά":{"ha":897,"x_min":47,"x_max":875,"o":"m 503 786 l 321 786 l 404 986 l 621 986 l 503 786 m 333 -17 q 182 30 247 -17 q 82 158 117 76 q 47 344 47 240 q 82 532 47 449 q 181 663 117 615 q 331 711 244 711 q 467 674 410 711 q 546 586 524 638 l 569 593 q 553 638 557 622 q 549 685 549 654 l 549 694 l 789 694 l 789 228 q 798 189 789 200 q 832 178 807 178 q 854 180 840 178 q 875 183 868 182 l 875 3 q 754 -12 801 -12 q 636 22 679 -12 q 592 108 593 56 l 592 119 l 571 122 q 490 25 550 67 q 333 -17 429 -17 m 429 153 q 526 207 494 153 q 557 346 557 261 q 526 487 557 432 q 429 542 494 542 l 424 542 q 327 488 358 542 q 296 346 296 435 q 327 205 296 257 q 424 153 358 153 l 429 153 z "},"έ":{"ha":779,"x_min":36,"x_max":757,"o":"m 474 786 l 292 786 l 375 986 l 592 986 l 474 786 m 383 -17 q 131 38 226 -17 q 36 188 36 92 q 77 297 36 253 q 196 351 118 342 l 196 374 q 86 423 125 382 q 47 522 47 464 q 91 621 47 578 q 212 688 135 664 q 386 711 289 711 q 632 649 532 711 q 750 468 732 586 l 508 468 q 465 527 499 506 q 385 549 431 549 q 313 533 344 549 q 282 486 282 517 q 313 448 282 461 q 379 435 343 435 l 469 435 l 469 274 l 378 274 q 308 258 335 274 q 281 218 281 243 q 311 168 281 185 q 383 151 342 151 q 467 176 429 151 q 514 243 506 201 l 757 243 q 641 53 742 122 q 383 -17 540 -17 z "},"ή":{"ha":890,"x_min":26,"x_max":818,"o":"m 565 786 l 383 786 l 467 986 l 683 986 l 565 786 m 26 689 q 135 697 83 697 q 264 667 218 697 q 310 585 310 638 l 310 563 l 332 558 q 417 669 356 626 q 575 711 478 711 q 749 649 681 711 q 818 463 818 588 l 818 -271 l 582 -271 l 582 424 q 551 502 582 475 q 474 529 521 529 l 469 529 q 388 499 421 529 q 354 419 354 469 l 354 0 l 113 0 l 113 471 q 67 519 113 519 q 26 517 51 519 l 26 689 z "},".":{"ha":375,"x_min":58,"x_max":315,"o":"m 188 -17 q 96 21 133 -17 q 58 113 58 58 q 96 203 58 165 q 188 240 133 240 q 278 203 240 240 q 315 113 315 165 q 278 21 315 58 q 188 -17 240 -17 z "},",":{"ha":372,"x_min":54,"x_max":322,"o":"m 322 204 l 221 -185 l 54 -185 l 99 204 l 322 204 z "}," ":{"ha":1389,"x_min":0,"x_max":0,"o":""}," ":{"ha":694,"x_min":0,"x_max":0,"o":""}," ":{"ha":900,"x_min":0,"x_max":0,"o":""}," ":{"ha":347,"x_min":0,"x_max":0,"o":""}," ":{"ha":199,"x_min":0,"x_max":0,"o":""}," ":{"ha":379,"x_min":0,"x_max":0,"o":""}," ":{"ha":278,"x_min":0,"x_max":0,"o":""}}}
